G75*
%MOIN*%
%OFA0B0*%
%FSLAX25Y25*%
%IPPOS*%
%LPD*%
%AMOC8*
5,1,8,0,0,1.08239X$1,22.5*
%
%ADD10OC8,0.06000*%
%ADD11C,0.07400*%
%ADD12OC8,0.07400*%
%ADD13C,0.03175*%
%ADD14C,0.01000*%
%ADD15C,0.00500*%
D10*
X0236250Y0083750D03*
X0236250Y0093750D03*
X0236250Y0103750D03*
X0236250Y0113750D03*
D11*
X0221250Y0016250D03*
X0211250Y0016250D03*
D12*
X0025250Y0061250D03*
X0015250Y0061250D03*
X0015250Y0071250D03*
X0025250Y0071250D03*
X0025250Y0081250D03*
X0015250Y0081250D03*
X0015250Y0091250D03*
X0025250Y0091250D03*
X0025250Y0101250D03*
X0015250Y0101250D03*
D13*
X0031250Y0115010D03*
X0038750Y0106250D03*
X0042057Y0098750D03*
X0051250Y0106250D03*
X0061250Y0091250D03*
X0078750Y0101250D03*
X0101250Y0111250D03*
X0116250Y0101250D03*
X0118750Y0091250D03*
X0136250Y0088140D03*
X0152250Y0084203D03*
X0156250Y0087726D03*
X0161250Y0088750D03*
X0168140Y0085860D03*
X0165750Y0078297D03*
X0170750Y0078297D03*
X0163750Y0073750D03*
X0152250Y0079250D03*
X0136250Y0067750D03*
X0113750Y0068750D03*
X0093750Y0056250D03*
X0076250Y0046250D03*
X0061250Y0046250D03*
X0076250Y0068750D03*
X0088750Y0083750D03*
X0118750Y0051250D03*
X0113750Y0043750D03*
X0118750Y0028750D03*
X0153750Y0046250D03*
X0167250Y0046250D03*
X0183750Y0061250D03*
X0206250Y0058750D03*
X0188750Y0023750D03*
X0201250Y0101250D03*
X0191250Y0120250D03*
X0167750Y0123750D03*
X0148750Y0123750D03*
X0128750Y0136250D03*
X0116250Y0136250D03*
X0145010Y0141250D03*
X0156250Y0141250D03*
X0156750Y0103750D03*
X0226250Y0143533D03*
X0086250Y0131250D03*
X0073750Y0118750D03*
X0043750Y0132490D03*
X0058750Y0141250D03*
X0038750Y0073750D03*
D14*
X0025250Y0071250D02*
X0020250Y0076250D01*
X0020250Y0103750D01*
X0028250Y0111750D01*
X0028250Y0124250D01*
X0050750Y0146750D01*
X0128750Y0146750D01*
X0134250Y0141250D01*
X0145010Y0141250D01*
X0127750Y0144750D02*
X0148750Y0123750D01*
X0168140Y0112750D02*
X0199140Y0143750D01*
X0226033Y0143750D01*
X0226250Y0143533D01*
X0191250Y0120250D02*
X0191250Y0098797D01*
X0170750Y0078297D01*
X0165750Y0078297D02*
X0170797Y0073250D01*
X0212750Y0073250D01*
X0233250Y0093750D01*
X0236250Y0093750D01*
X0241250Y0091250D02*
X0238750Y0088750D01*
X0231250Y0088750D01*
X0213750Y0071250D01*
X0166250Y0071250D01*
X0163750Y0073750D01*
X0163250Y0069250D02*
X0158750Y0073750D01*
X0158750Y0077750D01*
X0152297Y0084203D01*
X0152250Y0084203D01*
X0156250Y0087726D02*
X0144774Y0087726D01*
X0121750Y0110750D01*
X0106750Y0110750D01*
X0102750Y0114750D01*
X0097750Y0114750D01*
X0069750Y0142750D01*
X0060250Y0142750D01*
X0058750Y0141250D01*
X0051750Y0144750D02*
X0031250Y0124250D01*
X0031250Y0115010D01*
X0031250Y0107250D01*
X0025250Y0101250D01*
X0025250Y0091250D02*
X0034557Y0091250D01*
X0042057Y0098750D01*
X0042557Y0099250D01*
X0076750Y0099250D01*
X0078750Y0101250D01*
X0077250Y0104750D02*
X0118750Y0104750D01*
X0121486Y0102014D01*
X0121486Y0093986D01*
X0118750Y0091250D01*
X0118750Y0051250D01*
X0118750Y0028750D01*
X0088750Y0073750D02*
X0061250Y0046250D01*
X0073750Y0066250D02*
X0076250Y0068750D01*
X0073750Y0066250D02*
X0020250Y0066250D01*
X0015250Y0061250D01*
X0061250Y0091250D02*
X0067250Y0097250D01*
X0079250Y0097250D01*
X0084750Y0102750D01*
X0114750Y0102750D01*
X0116250Y0101250D01*
X0119750Y0106750D02*
X0076250Y0106750D01*
X0072750Y0103250D01*
X0053750Y0103250D01*
X0051250Y0106250D01*
X0051250Y0101250D02*
X0043750Y0108750D01*
X0043750Y0132490D01*
X0051750Y0144750D02*
X0127750Y0144750D01*
X0098750Y0116750D02*
X0086250Y0129250D01*
X0086250Y0131250D01*
X0098750Y0116750D02*
X0103750Y0116750D01*
X0107750Y0112750D01*
X0168140Y0112750D01*
X0168140Y0085860D01*
X0152250Y0079250D02*
X0150250Y0079250D01*
X0120750Y0108750D01*
X0103750Y0108750D01*
X0101250Y0111250D01*
X0119750Y0106750D02*
X0136250Y0090250D01*
X0136250Y0088140D01*
X0163250Y0069250D02*
X0175750Y0069250D01*
X0183750Y0061250D01*
X0183750Y0043750D01*
X0211250Y0016250D01*
X0241250Y0091250D02*
X0241250Y0098750D01*
X0236250Y0103750D01*
X0088750Y0083750D02*
X0088750Y0073750D01*
X0073750Y0101250D02*
X0051250Y0101250D01*
X0073750Y0101250D02*
X0077250Y0104750D01*
D15*
X0002700Y0159800D02*
X0002700Y0002700D01*
X0249800Y0002700D01*
X0249800Y0158764D01*
X0146249Y0159800D01*
X0002700Y0159800D01*
X0002700Y0159777D02*
X0148589Y0159777D01*
X0135058Y0143200D02*
X0129558Y0148700D01*
X0049942Y0148700D01*
X0026300Y0125058D01*
X0026300Y0112558D01*
X0018621Y0104879D01*
X0017300Y0106200D01*
X0015500Y0106200D01*
X0015500Y0101500D01*
X0015000Y0101500D01*
X0015000Y0106200D01*
X0013200Y0106200D01*
X0010300Y0103300D01*
X0010300Y0101500D01*
X0015000Y0101500D01*
X0015000Y0101000D01*
X0010300Y0101000D01*
X0010300Y0099200D01*
X0013108Y0096391D01*
X0010100Y0093383D01*
X0010100Y0089117D01*
X0012967Y0086250D01*
X0010100Y0083383D01*
X0010100Y0079117D01*
X0012967Y0076250D01*
X0010100Y0073383D01*
X0010100Y0069117D01*
X0012967Y0066250D01*
X0010100Y0063383D01*
X0010100Y0059117D01*
X0013117Y0056100D01*
X0017383Y0056100D01*
X0020250Y0058967D01*
X0023117Y0056100D01*
X0027383Y0056100D01*
X0030400Y0059117D01*
X0030400Y0063383D01*
X0029483Y0064300D01*
X0074558Y0064300D01*
X0075970Y0065713D01*
X0076854Y0065713D01*
X0077971Y0066175D01*
X0078825Y0067029D01*
X0079287Y0068146D01*
X0079287Y0069354D01*
X0078825Y0070471D01*
X0077971Y0071325D01*
X0076854Y0071787D01*
X0075646Y0071787D01*
X0074529Y0071325D01*
X0073675Y0070471D01*
X0073213Y0069354D01*
X0073213Y0068470D01*
X0072942Y0068200D01*
X0029483Y0068200D01*
X0030400Y0069117D01*
X0030400Y0073383D01*
X0027533Y0076250D01*
X0030400Y0079117D01*
X0030400Y0083383D01*
X0027533Y0086250D01*
X0030400Y0089117D01*
X0030400Y0089300D01*
X0035365Y0089300D01*
X0041777Y0095713D01*
X0042661Y0095713D01*
X0043778Y0096175D01*
X0044632Y0097029D01*
X0044744Y0097300D01*
X0064542Y0097300D01*
X0061530Y0094287D01*
X0060646Y0094287D01*
X0059529Y0093825D01*
X0058675Y0092971D01*
X0058213Y0091854D01*
X0058213Y0090646D01*
X0058675Y0089529D01*
X0059529Y0088675D01*
X0060646Y0088213D01*
X0061854Y0088213D01*
X0062971Y0088675D01*
X0063825Y0089529D01*
X0064287Y0090646D01*
X0064287Y0091530D01*
X0068058Y0095300D01*
X0080058Y0095300D01*
X0085558Y0100800D01*
X0113213Y0100800D01*
X0113213Y0100646D01*
X0113675Y0099529D01*
X0114529Y0098675D01*
X0115646Y0098213D01*
X0116854Y0098213D01*
X0117971Y0098675D01*
X0118825Y0099529D01*
X0119287Y0100646D01*
X0119287Y0101455D01*
X0119536Y0101206D01*
X0119536Y0094794D01*
X0119030Y0094287D01*
X0118146Y0094287D01*
X0117029Y0093825D01*
X0116175Y0092971D01*
X0115713Y0091854D01*
X0115713Y0090646D01*
X0116175Y0089529D01*
X0116800Y0088904D01*
X0116800Y0053596D01*
X0116175Y0052971D01*
X0115713Y0051854D01*
X0115713Y0050646D01*
X0116175Y0049529D01*
X0116800Y0048904D01*
X0116800Y0031096D01*
X0116175Y0030471D01*
X0115713Y0029354D01*
X0115713Y0028146D01*
X0116175Y0027029D01*
X0117029Y0026175D01*
X0118146Y0025713D01*
X0119354Y0025713D01*
X0120471Y0026175D01*
X0121325Y0027029D01*
X0121787Y0028146D01*
X0121787Y0029354D01*
X0121325Y0030471D01*
X0120700Y0031096D01*
X0120700Y0048904D01*
X0121325Y0049529D01*
X0121787Y0050646D01*
X0121787Y0051854D01*
X0121325Y0052971D01*
X0120700Y0053596D01*
X0120700Y0088904D01*
X0121325Y0089529D01*
X0121787Y0090646D01*
X0121787Y0091530D01*
X0123436Y0093178D01*
X0123436Y0100306D01*
X0133778Y0089964D01*
X0133675Y0089860D01*
X0133213Y0088744D01*
X0133213Y0087536D01*
X0133675Y0086419D01*
X0134529Y0085565D01*
X0135646Y0085102D01*
X0136854Y0085102D01*
X0137971Y0085565D01*
X0138825Y0086419D01*
X0139264Y0087479D01*
X0148300Y0078442D01*
X0149442Y0077300D01*
X0149904Y0077300D01*
X0150529Y0076675D01*
X0151646Y0076213D01*
X0152854Y0076213D01*
X0153971Y0076675D01*
X0154825Y0077529D01*
X0155231Y0078511D01*
X0156800Y0076942D01*
X0156800Y0072942D01*
X0161300Y0068442D01*
X0162442Y0067300D01*
X0174942Y0067300D01*
X0180713Y0061530D01*
X0180713Y0060646D01*
X0181175Y0059529D01*
X0181800Y0058904D01*
X0181800Y0042942D01*
X0206501Y0018242D01*
X0206100Y0017274D01*
X0206100Y0015226D01*
X0206884Y0013333D01*
X0208333Y0011884D01*
X0210226Y0011100D01*
X0212274Y0011100D01*
X0214167Y0011884D01*
X0215616Y0013333D01*
X0216400Y0015226D01*
X0216400Y0015229D01*
X0216422Y0015091D01*
X0216663Y0014350D01*
X0217016Y0013656D01*
X0217474Y0013025D01*
X0218025Y0012474D01*
X0218656Y0012016D01*
X0219350Y0011663D01*
X0220091Y0011422D01*
X0220860Y0011300D01*
X0221000Y0011300D01*
X0221000Y0016000D01*
X0221500Y0016000D01*
X0221500Y0016500D01*
X0221000Y0016500D01*
X0221000Y0021200D01*
X0220860Y0021200D01*
X0220091Y0021078D01*
X0219350Y0020837D01*
X0218656Y0020484D01*
X0218025Y0020026D01*
X0217474Y0019475D01*
X0217016Y0018844D01*
X0216663Y0018150D01*
X0216422Y0017409D01*
X0216400Y0017271D01*
X0216400Y0017274D01*
X0215616Y0019167D01*
X0214167Y0020616D01*
X0212274Y0021400D01*
X0210226Y0021400D01*
X0209258Y0020999D01*
X0185700Y0044558D01*
X0185700Y0058904D01*
X0186325Y0059529D01*
X0186787Y0060646D01*
X0186787Y0061854D01*
X0186325Y0062971D01*
X0185471Y0063825D01*
X0184354Y0064287D01*
X0183470Y0064287D01*
X0178458Y0069300D01*
X0214558Y0069300D01*
X0232058Y0086800D01*
X0233290Y0086800D01*
X0232000Y0085510D01*
X0232000Y0084000D01*
X0236000Y0084000D01*
X0236000Y0083500D01*
X0236500Y0083500D01*
X0236500Y0084000D01*
X0240500Y0084000D01*
X0240500Y0085510D01*
X0239210Y0086800D01*
X0239558Y0086800D01*
X0243200Y0090442D01*
X0243200Y0099558D01*
X0240700Y0102058D01*
X0240700Y0105593D01*
X0238093Y0108200D01*
X0234407Y0108200D01*
X0231800Y0105593D01*
X0231800Y0101907D01*
X0234407Y0099300D01*
X0237942Y0099300D01*
X0239300Y0097942D01*
X0239300Y0096993D01*
X0238093Y0098200D01*
X0234407Y0098200D01*
X0231800Y0095593D01*
X0231800Y0095058D01*
X0211942Y0075200D01*
X0171605Y0075200D01*
X0171489Y0075316D01*
X0172471Y0075722D01*
X0173325Y0076577D01*
X0173787Y0077693D01*
X0173787Y0078577D01*
X0193200Y0097990D01*
X0193200Y0117904D01*
X0193825Y0118529D01*
X0194287Y0119646D01*
X0194287Y0120854D01*
X0193825Y0121971D01*
X0192971Y0122825D01*
X0191854Y0123287D01*
X0190646Y0123287D01*
X0189529Y0122825D01*
X0188675Y0121971D01*
X0188213Y0120854D01*
X0188213Y0119646D01*
X0188675Y0118529D01*
X0189300Y0117904D01*
X0189300Y0099605D01*
X0171030Y0081335D01*
X0170146Y0081335D01*
X0169029Y0080872D01*
X0168250Y0080093D01*
X0167471Y0080872D01*
X0166354Y0081335D01*
X0165146Y0081335D01*
X0164029Y0080872D01*
X0163175Y0080018D01*
X0162713Y0078901D01*
X0162713Y0077693D01*
X0163096Y0076767D01*
X0162029Y0076325D01*
X0161175Y0075471D01*
X0160769Y0074489D01*
X0160700Y0074558D01*
X0160700Y0078558D01*
X0155287Y0083970D01*
X0155287Y0084807D01*
X0155272Y0084844D01*
X0155646Y0084689D01*
X0156854Y0084689D01*
X0157971Y0085151D01*
X0158825Y0086006D01*
X0159287Y0087122D01*
X0159287Y0088331D01*
X0158825Y0089447D01*
X0157971Y0090301D01*
X0156854Y0090764D01*
X0155646Y0090764D01*
X0154529Y0090301D01*
X0153904Y0089676D01*
X0145581Y0089676D01*
X0124458Y0110800D01*
X0166190Y0110800D01*
X0166190Y0088206D01*
X0165565Y0087581D01*
X0165102Y0086464D01*
X0165102Y0085256D01*
X0165565Y0084140D01*
X0166419Y0083285D01*
X0167536Y0082823D01*
X0168744Y0082823D01*
X0169860Y0083285D01*
X0170715Y0084140D01*
X0171177Y0085256D01*
X0171177Y0086464D01*
X0170715Y0087581D01*
X0170090Y0088206D01*
X0170090Y0111942D01*
X0199947Y0141800D01*
X0223688Y0141800D01*
X0224529Y0140958D01*
X0225646Y0140496D01*
X0226854Y0140496D01*
X0227971Y0140958D01*
X0228825Y0141813D01*
X0229287Y0142929D01*
X0229287Y0144138D01*
X0228825Y0145254D01*
X0227971Y0146108D01*
X0226854Y0146571D01*
X0225646Y0146571D01*
X0224529Y0146108D01*
X0224121Y0145700D01*
X0198332Y0145700D01*
X0167332Y0114700D01*
X0108558Y0114700D01*
X0104558Y0118700D01*
X0099558Y0118700D01*
X0088777Y0129481D01*
X0088825Y0129529D01*
X0089287Y0130646D01*
X0089287Y0131854D01*
X0088825Y0132971D01*
X0087971Y0133825D01*
X0086854Y0134287D01*
X0085646Y0134287D01*
X0084529Y0133825D01*
X0083675Y0132971D01*
X0083269Y0131989D01*
X0072458Y0142800D01*
X0126942Y0142800D01*
X0145713Y0124030D01*
X0145713Y0123146D01*
X0146175Y0122029D01*
X0147029Y0121175D01*
X0148146Y0120713D01*
X0149354Y0120713D01*
X0150471Y0121175D01*
X0151325Y0122029D01*
X0151787Y0123146D01*
X0151787Y0124354D01*
X0151325Y0125471D01*
X0150471Y0126325D01*
X0149354Y0126787D01*
X0148470Y0126787D01*
X0135958Y0139300D01*
X0142664Y0139300D01*
X0143289Y0138675D01*
X0144406Y0138213D01*
X0145614Y0138213D01*
X0146730Y0138675D01*
X0147585Y0139529D01*
X0148047Y0140646D01*
X0148047Y0141854D01*
X0147585Y0142971D01*
X0146730Y0143825D01*
X0145614Y0144287D01*
X0144406Y0144287D01*
X0143289Y0143825D01*
X0142664Y0143200D01*
X0135058Y0143200D01*
X0134932Y0143326D02*
X0142790Y0143326D01*
X0143289Y0143824D02*
X0134433Y0143824D01*
X0133935Y0144323D02*
X0196955Y0144323D01*
X0197453Y0144821D02*
X0133436Y0144821D01*
X0132938Y0145320D02*
X0197952Y0145320D01*
X0196456Y0143824D02*
X0146731Y0143824D01*
X0147230Y0143326D02*
X0195958Y0143326D01*
X0195459Y0142827D02*
X0147644Y0142827D01*
X0147851Y0142329D02*
X0194961Y0142329D01*
X0194462Y0141830D02*
X0148047Y0141830D01*
X0148047Y0141332D02*
X0193964Y0141332D01*
X0193465Y0140833D02*
X0148047Y0140833D01*
X0147918Y0140335D02*
X0192967Y0140335D01*
X0192468Y0139836D02*
X0147712Y0139836D01*
X0147393Y0139338D02*
X0191970Y0139338D01*
X0191471Y0138839D02*
X0146895Y0138839D01*
X0145923Y0138341D02*
X0190973Y0138341D01*
X0190474Y0137842D02*
X0137416Y0137842D01*
X0137914Y0137344D02*
X0189976Y0137344D01*
X0189477Y0136845D02*
X0138413Y0136845D01*
X0138911Y0136347D02*
X0188979Y0136347D01*
X0188480Y0135848D02*
X0139410Y0135848D01*
X0139908Y0135350D02*
X0187982Y0135350D01*
X0187483Y0134851D02*
X0140407Y0134851D01*
X0140905Y0134353D02*
X0186985Y0134353D01*
X0186486Y0133854D02*
X0141404Y0133854D01*
X0141902Y0133355D02*
X0185988Y0133355D01*
X0185489Y0132857D02*
X0142401Y0132857D01*
X0142899Y0132358D02*
X0184991Y0132358D01*
X0184492Y0131860D02*
X0143398Y0131860D01*
X0143896Y0131361D02*
X0183994Y0131361D01*
X0183495Y0130863D02*
X0144395Y0130863D01*
X0144893Y0130364D02*
X0182996Y0130364D01*
X0182498Y0129866D02*
X0145392Y0129866D01*
X0145890Y0129367D02*
X0181999Y0129367D01*
X0181501Y0128869D02*
X0146389Y0128869D01*
X0146887Y0128370D02*
X0181002Y0128370D01*
X0180504Y0127872D02*
X0147386Y0127872D01*
X0147884Y0127373D02*
X0180005Y0127373D01*
X0179507Y0126875D02*
X0148383Y0126875D01*
X0150347Y0126376D02*
X0179008Y0126376D01*
X0178510Y0125878D02*
X0150918Y0125878D01*
X0151363Y0125379D02*
X0178011Y0125379D01*
X0177513Y0124881D02*
X0151569Y0124881D01*
X0151776Y0124382D02*
X0177014Y0124382D01*
X0176516Y0123884D02*
X0151787Y0123884D01*
X0151787Y0123385D02*
X0176017Y0123385D01*
X0175519Y0122887D02*
X0151680Y0122887D01*
X0151474Y0122388D02*
X0175020Y0122388D01*
X0174522Y0121890D02*
X0151185Y0121890D01*
X0150687Y0121391D02*
X0174023Y0121391D01*
X0173525Y0120893D02*
X0149789Y0120893D01*
X0147711Y0120893D02*
X0097365Y0120893D01*
X0096866Y0121391D02*
X0146813Y0121391D01*
X0146315Y0121890D02*
X0096368Y0121890D01*
X0095869Y0122388D02*
X0146026Y0122388D01*
X0145820Y0122887D02*
X0095371Y0122887D01*
X0094872Y0123385D02*
X0145713Y0123385D01*
X0145713Y0123884D02*
X0094374Y0123884D01*
X0093875Y0124382D02*
X0145360Y0124382D01*
X0144861Y0124881D02*
X0093377Y0124881D01*
X0092878Y0125379D02*
X0144363Y0125379D01*
X0143864Y0125878D02*
X0092380Y0125878D01*
X0091881Y0126376D02*
X0143366Y0126376D01*
X0142867Y0126875D02*
X0091383Y0126875D01*
X0090884Y0127373D02*
X0142369Y0127373D01*
X0141870Y0127872D02*
X0090386Y0127872D01*
X0089887Y0128370D02*
X0141372Y0128370D01*
X0140873Y0128869D02*
X0089389Y0128869D01*
X0088890Y0129367D02*
X0140375Y0129367D01*
X0139876Y0129866D02*
X0088964Y0129866D01*
X0089171Y0130364D02*
X0139378Y0130364D01*
X0138879Y0130863D02*
X0089287Y0130863D01*
X0089287Y0131361D02*
X0138381Y0131361D01*
X0137882Y0131860D02*
X0089285Y0131860D01*
X0089079Y0132358D02*
X0137384Y0132358D01*
X0136885Y0132857D02*
X0088872Y0132857D01*
X0088440Y0133355D02*
X0136387Y0133355D01*
X0135888Y0133854D02*
X0087900Y0133854D01*
X0084600Y0133854D02*
X0081404Y0133854D01*
X0081902Y0133355D02*
X0084060Y0133355D01*
X0083628Y0132857D02*
X0082401Y0132857D01*
X0082899Y0132358D02*
X0083421Y0132358D01*
X0080905Y0134353D02*
X0135390Y0134353D01*
X0134891Y0134851D02*
X0080407Y0134851D01*
X0079908Y0135350D02*
X0134393Y0135350D01*
X0133894Y0135848D02*
X0079410Y0135848D01*
X0078911Y0136347D02*
X0133396Y0136347D01*
X0132897Y0136845D02*
X0078413Y0136845D01*
X0077914Y0137344D02*
X0132399Y0137344D01*
X0131900Y0137842D02*
X0077416Y0137842D01*
X0076917Y0138341D02*
X0131402Y0138341D01*
X0130903Y0138839D02*
X0076419Y0138839D01*
X0075920Y0139338D02*
X0130405Y0139338D01*
X0129906Y0139836D02*
X0075422Y0139836D01*
X0074923Y0140335D02*
X0129408Y0140335D01*
X0128909Y0140833D02*
X0074425Y0140833D01*
X0073926Y0141332D02*
X0128411Y0141332D01*
X0127912Y0141830D02*
X0073427Y0141830D01*
X0072929Y0142329D02*
X0127414Y0142329D01*
X0132439Y0145818D02*
X0224239Y0145818D01*
X0225032Y0146317D02*
X0131941Y0146317D01*
X0131442Y0146815D02*
X0249800Y0146815D01*
X0249800Y0146317D02*
X0227468Y0146317D01*
X0228261Y0145818D02*
X0249800Y0145818D01*
X0249800Y0145320D02*
X0228759Y0145320D01*
X0229004Y0144821D02*
X0249800Y0144821D01*
X0249800Y0144323D02*
X0229211Y0144323D01*
X0229287Y0143824D02*
X0249800Y0143824D01*
X0249800Y0143326D02*
X0229287Y0143326D01*
X0229245Y0142827D02*
X0249800Y0142827D01*
X0249800Y0142329D02*
X0229039Y0142329D01*
X0228832Y0141830D02*
X0249800Y0141830D01*
X0249800Y0141332D02*
X0228344Y0141332D01*
X0227668Y0140833D02*
X0249800Y0140833D01*
X0249800Y0140335D02*
X0198482Y0140335D01*
X0198981Y0140833D02*
X0224832Y0140833D01*
X0224156Y0141332D02*
X0199479Y0141332D01*
X0197984Y0139836D02*
X0249800Y0139836D01*
X0249800Y0139338D02*
X0197485Y0139338D01*
X0196987Y0138839D02*
X0249800Y0138839D01*
X0249800Y0138341D02*
X0196488Y0138341D01*
X0195990Y0137842D02*
X0249800Y0137842D01*
X0249800Y0137344D02*
X0195491Y0137344D01*
X0194993Y0136845D02*
X0249800Y0136845D01*
X0249800Y0136347D02*
X0194494Y0136347D01*
X0193996Y0135848D02*
X0249800Y0135848D01*
X0249800Y0135350D02*
X0193497Y0135350D01*
X0192999Y0134851D02*
X0249800Y0134851D01*
X0249800Y0134353D02*
X0192500Y0134353D01*
X0192001Y0133854D02*
X0249800Y0133854D01*
X0249800Y0133355D02*
X0191503Y0133355D01*
X0191004Y0132857D02*
X0249800Y0132857D01*
X0249800Y0132358D02*
X0190506Y0132358D01*
X0190007Y0131860D02*
X0249800Y0131860D01*
X0249800Y0131361D02*
X0189509Y0131361D01*
X0189010Y0130863D02*
X0249800Y0130863D01*
X0249800Y0130364D02*
X0188512Y0130364D01*
X0188013Y0129866D02*
X0249800Y0129866D01*
X0249800Y0129367D02*
X0187515Y0129367D01*
X0187016Y0128869D02*
X0249800Y0128869D01*
X0249800Y0128370D02*
X0186518Y0128370D01*
X0186019Y0127872D02*
X0249800Y0127872D01*
X0249800Y0127373D02*
X0185521Y0127373D01*
X0185022Y0126875D02*
X0249800Y0126875D01*
X0249800Y0126376D02*
X0184524Y0126376D01*
X0184025Y0125878D02*
X0249800Y0125878D01*
X0249800Y0125379D02*
X0183527Y0125379D01*
X0183028Y0124881D02*
X0249800Y0124881D01*
X0249800Y0124382D02*
X0182530Y0124382D01*
X0182031Y0123884D02*
X0249800Y0123884D01*
X0249800Y0123385D02*
X0181533Y0123385D01*
X0181034Y0122887D02*
X0189679Y0122887D01*
X0189093Y0122388D02*
X0180536Y0122388D01*
X0180037Y0121890D02*
X0188642Y0121890D01*
X0188435Y0121391D02*
X0179539Y0121391D01*
X0179040Y0120893D02*
X0188229Y0120893D01*
X0188213Y0120394D02*
X0178542Y0120394D01*
X0178043Y0119896D02*
X0188213Y0119896D01*
X0188316Y0119397D02*
X0177545Y0119397D01*
X0177046Y0118899D02*
X0188522Y0118899D01*
X0188804Y0118400D02*
X0176548Y0118400D01*
X0176049Y0117902D02*
X0189300Y0117902D01*
X0189300Y0117403D02*
X0175551Y0117403D01*
X0175052Y0116905D02*
X0189300Y0116905D01*
X0189300Y0116406D02*
X0174554Y0116406D01*
X0174055Y0115908D02*
X0189300Y0115908D01*
X0189300Y0115409D02*
X0173557Y0115409D01*
X0173058Y0114911D02*
X0189300Y0114911D01*
X0189300Y0114412D02*
X0172560Y0114412D01*
X0172061Y0113914D02*
X0189300Y0113914D01*
X0189300Y0113415D02*
X0171563Y0113415D01*
X0171064Y0112917D02*
X0189300Y0112917D01*
X0189300Y0112418D02*
X0170566Y0112418D01*
X0170090Y0111920D02*
X0189300Y0111920D01*
X0189300Y0111421D02*
X0170090Y0111421D01*
X0170090Y0110922D02*
X0189300Y0110922D01*
X0189300Y0110424D02*
X0170090Y0110424D01*
X0170090Y0109925D02*
X0189300Y0109925D01*
X0189300Y0109427D02*
X0170090Y0109427D01*
X0170090Y0108928D02*
X0189300Y0108928D01*
X0189300Y0108430D02*
X0170090Y0108430D01*
X0170090Y0107931D02*
X0189300Y0107931D01*
X0189300Y0107433D02*
X0170090Y0107433D01*
X0170090Y0106934D02*
X0189300Y0106934D01*
X0189300Y0106436D02*
X0170090Y0106436D01*
X0170090Y0105937D02*
X0189300Y0105937D01*
X0189300Y0105439D02*
X0170090Y0105439D01*
X0170090Y0104940D02*
X0189300Y0104940D01*
X0189300Y0104442D02*
X0170090Y0104442D01*
X0170090Y0103943D02*
X0189300Y0103943D01*
X0189300Y0103445D02*
X0170090Y0103445D01*
X0170090Y0102946D02*
X0189300Y0102946D01*
X0189300Y0102448D02*
X0170090Y0102448D01*
X0170090Y0101949D02*
X0189300Y0101949D01*
X0189300Y0101451D02*
X0170090Y0101451D01*
X0170090Y0100952D02*
X0189300Y0100952D01*
X0189300Y0100454D02*
X0170090Y0100454D01*
X0170090Y0099955D02*
X0189300Y0099955D01*
X0189152Y0099457D02*
X0170090Y0099457D01*
X0170090Y0098958D02*
X0188653Y0098958D01*
X0188155Y0098460D02*
X0170090Y0098460D01*
X0170090Y0097961D02*
X0187656Y0097961D01*
X0187158Y0097463D02*
X0170090Y0097463D01*
X0170090Y0096964D02*
X0186659Y0096964D01*
X0186161Y0096466D02*
X0170090Y0096466D01*
X0170090Y0095967D02*
X0185662Y0095967D01*
X0185164Y0095469D02*
X0170090Y0095469D01*
X0170090Y0094970D02*
X0184665Y0094970D01*
X0184167Y0094472D02*
X0170090Y0094472D01*
X0170090Y0093973D02*
X0183668Y0093973D01*
X0183170Y0093475D02*
X0170090Y0093475D01*
X0170090Y0092976D02*
X0182671Y0092976D01*
X0182173Y0092478D02*
X0170090Y0092478D01*
X0170090Y0091979D02*
X0181674Y0091979D01*
X0181176Y0091481D02*
X0170090Y0091481D01*
X0170090Y0090982D02*
X0180677Y0090982D01*
X0180179Y0090484D02*
X0170090Y0090484D01*
X0170090Y0089985D02*
X0179680Y0089985D01*
X0179182Y0089487D02*
X0170090Y0089487D01*
X0170090Y0088988D02*
X0178683Y0088988D01*
X0178185Y0088489D02*
X0170090Y0088489D01*
X0170305Y0087991D02*
X0177686Y0087991D01*
X0177187Y0087492D02*
X0170751Y0087492D01*
X0170958Y0086994D02*
X0176689Y0086994D01*
X0176190Y0086495D02*
X0171164Y0086495D01*
X0171177Y0085997D02*
X0175692Y0085997D01*
X0175193Y0085498D02*
X0171177Y0085498D01*
X0171071Y0085000D02*
X0174695Y0085000D01*
X0174196Y0084501D02*
X0170865Y0084501D01*
X0170578Y0084003D02*
X0173698Y0084003D01*
X0173199Y0083504D02*
X0170079Y0083504D01*
X0169186Y0083006D02*
X0172701Y0083006D01*
X0172202Y0082507D02*
X0156750Y0082507D01*
X0156252Y0083006D02*
X0167094Y0083006D01*
X0166200Y0083504D02*
X0155753Y0083504D01*
X0155287Y0084003D02*
X0165702Y0084003D01*
X0165415Y0084501D02*
X0155287Y0084501D01*
X0157605Y0085000D02*
X0165208Y0085000D01*
X0165102Y0085498D02*
X0158318Y0085498D01*
X0158816Y0085997D02*
X0165102Y0085997D01*
X0165115Y0086495D02*
X0159028Y0086495D01*
X0159234Y0086994D02*
X0165322Y0086994D01*
X0165528Y0087492D02*
X0159287Y0087492D01*
X0159287Y0087991D02*
X0165975Y0087991D01*
X0166190Y0088489D02*
X0159222Y0088489D01*
X0159015Y0088988D02*
X0166190Y0088988D01*
X0166190Y0089487D02*
X0158785Y0089487D01*
X0158287Y0089985D02*
X0166190Y0089985D01*
X0166190Y0090484D02*
X0157531Y0090484D01*
X0154969Y0090484D02*
X0144774Y0090484D01*
X0144276Y0090982D02*
X0166190Y0090982D01*
X0166190Y0091481D02*
X0143777Y0091481D01*
X0143279Y0091979D02*
X0166190Y0091979D01*
X0166190Y0092478D02*
X0142780Y0092478D01*
X0142282Y0092976D02*
X0166190Y0092976D01*
X0166190Y0093475D02*
X0141783Y0093475D01*
X0141285Y0093973D02*
X0166190Y0093973D01*
X0166190Y0094472D02*
X0140786Y0094472D01*
X0140288Y0094970D02*
X0166190Y0094970D01*
X0166190Y0095469D02*
X0139789Y0095469D01*
X0139291Y0095967D02*
X0166190Y0095967D01*
X0166190Y0096466D02*
X0138792Y0096466D01*
X0138294Y0096964D02*
X0166190Y0096964D01*
X0166190Y0097463D02*
X0137795Y0097463D01*
X0137297Y0097961D02*
X0166190Y0097961D01*
X0166190Y0098460D02*
X0136798Y0098460D01*
X0136299Y0098958D02*
X0166190Y0098958D01*
X0166190Y0099457D02*
X0135801Y0099457D01*
X0135302Y0099955D02*
X0166190Y0099955D01*
X0166190Y0100454D02*
X0134804Y0100454D01*
X0134305Y0100952D02*
X0166190Y0100952D01*
X0166190Y0101451D02*
X0133807Y0101451D01*
X0133308Y0101949D02*
X0166190Y0101949D01*
X0166190Y0102448D02*
X0132810Y0102448D01*
X0132311Y0102946D02*
X0166190Y0102946D01*
X0166190Y0103445D02*
X0131813Y0103445D01*
X0131314Y0103943D02*
X0166190Y0103943D01*
X0166190Y0104442D02*
X0130816Y0104442D01*
X0130317Y0104940D02*
X0166190Y0104940D01*
X0166190Y0105439D02*
X0129819Y0105439D01*
X0129320Y0105937D02*
X0166190Y0105937D01*
X0166190Y0106436D02*
X0128822Y0106436D01*
X0128323Y0106934D02*
X0166190Y0106934D01*
X0166190Y0107433D02*
X0127825Y0107433D01*
X0127326Y0107931D02*
X0166190Y0107931D01*
X0166190Y0108430D02*
X0126828Y0108430D01*
X0126329Y0108928D02*
X0166190Y0108928D01*
X0166190Y0109427D02*
X0125831Y0109427D01*
X0125332Y0109925D02*
X0166190Y0109925D01*
X0166190Y0110424D02*
X0124834Y0110424D01*
X0119291Y0101451D02*
X0119287Y0101451D01*
X0119287Y0100952D02*
X0119536Y0100952D01*
X0119536Y0100454D02*
X0119208Y0100454D01*
X0119001Y0099955D02*
X0119536Y0099955D01*
X0119536Y0099457D02*
X0118752Y0099457D01*
X0118254Y0098958D02*
X0119536Y0098958D01*
X0119536Y0098460D02*
X0117451Y0098460D01*
X0119536Y0097961D02*
X0082719Y0097961D01*
X0082220Y0097463D02*
X0119536Y0097463D01*
X0119536Y0096964D02*
X0081722Y0096964D01*
X0081223Y0096466D02*
X0119536Y0096466D01*
X0119536Y0095967D02*
X0080725Y0095967D01*
X0080226Y0095469D02*
X0119536Y0095469D01*
X0119536Y0094970D02*
X0067728Y0094970D01*
X0067229Y0094472D02*
X0119214Y0094472D01*
X0117387Y0093973D02*
X0066731Y0093973D01*
X0066232Y0093475D02*
X0116679Y0093475D01*
X0116181Y0092976D02*
X0065734Y0092976D01*
X0065235Y0092478D02*
X0115971Y0092478D01*
X0115764Y0091979D02*
X0064737Y0091979D01*
X0064287Y0091481D02*
X0115713Y0091481D01*
X0115713Y0090982D02*
X0064287Y0090982D01*
X0064220Y0090484D02*
X0115780Y0090484D01*
X0115986Y0089985D02*
X0064014Y0089985D01*
X0063782Y0089487D02*
X0116218Y0089487D01*
X0116716Y0088988D02*
X0063284Y0088988D01*
X0062523Y0088489D02*
X0116800Y0088489D01*
X0116800Y0087991D02*
X0029274Y0087991D01*
X0028776Y0087492D02*
X0116800Y0087492D01*
X0116800Y0086994D02*
X0028277Y0086994D01*
X0027779Y0086495D02*
X0087441Y0086495D01*
X0087029Y0086325D02*
X0086175Y0085471D01*
X0085713Y0084354D01*
X0085713Y0083146D01*
X0086175Y0082029D01*
X0086800Y0081404D01*
X0086800Y0074558D01*
X0061530Y0049287D01*
X0060646Y0049287D01*
X0059529Y0048825D01*
X0058675Y0047971D01*
X0058213Y0046854D01*
X0058213Y0045646D01*
X0058675Y0044529D01*
X0059529Y0043675D01*
X0060646Y0043213D01*
X0061854Y0043213D01*
X0062971Y0043675D01*
X0063825Y0044529D01*
X0064287Y0045646D01*
X0064287Y0046530D01*
X0090700Y0072942D01*
X0090700Y0081404D01*
X0091325Y0082029D01*
X0091787Y0083146D01*
X0091787Y0084354D01*
X0091325Y0085471D01*
X0090471Y0086325D01*
X0089354Y0086787D01*
X0088146Y0086787D01*
X0087029Y0086325D01*
X0086701Y0085997D02*
X0027786Y0085997D01*
X0028285Y0085498D02*
X0086203Y0085498D01*
X0085980Y0085000D02*
X0028783Y0085000D01*
X0029282Y0084501D02*
X0085774Y0084501D01*
X0085713Y0084003D02*
X0029780Y0084003D01*
X0030279Y0083504D02*
X0085713Y0083504D01*
X0085771Y0083006D02*
X0030400Y0083006D01*
X0030400Y0082507D02*
X0085977Y0082507D01*
X0086196Y0082009D02*
X0030400Y0082009D01*
X0030400Y0081510D02*
X0086694Y0081510D01*
X0086800Y0081012D02*
X0030400Y0081012D01*
X0030400Y0080513D02*
X0086800Y0080513D01*
X0086800Y0080015D02*
X0030400Y0080015D01*
X0030400Y0079516D02*
X0086800Y0079516D01*
X0086800Y0079018D02*
X0030301Y0079018D01*
X0029802Y0078519D02*
X0086800Y0078519D01*
X0086800Y0078021D02*
X0029304Y0078021D01*
X0028805Y0077522D02*
X0086800Y0077522D01*
X0086800Y0077024D02*
X0028307Y0077024D01*
X0027808Y0076525D02*
X0086800Y0076525D01*
X0086800Y0076027D02*
X0027756Y0076027D01*
X0028255Y0075528D02*
X0086800Y0075528D01*
X0086800Y0075030D02*
X0028754Y0075030D01*
X0029252Y0074531D02*
X0086773Y0074531D01*
X0086275Y0074033D02*
X0029751Y0074033D01*
X0030249Y0073534D02*
X0085776Y0073534D01*
X0085278Y0073036D02*
X0030400Y0073036D01*
X0030400Y0072537D02*
X0084779Y0072537D01*
X0084281Y0072039D02*
X0030400Y0072039D01*
X0030400Y0071540D02*
X0075049Y0071540D01*
X0074246Y0071042D02*
X0030400Y0071042D01*
X0030400Y0070543D02*
X0073748Y0070543D01*
X0073499Y0070045D02*
X0030400Y0070045D01*
X0030400Y0069546D02*
X0073292Y0069546D01*
X0073213Y0069048D02*
X0030331Y0069048D01*
X0029832Y0068549D02*
X0073213Y0068549D01*
X0075816Y0065558D02*
X0077800Y0065558D01*
X0077684Y0066056D02*
X0078299Y0066056D01*
X0078351Y0066555D02*
X0078797Y0066555D01*
X0078835Y0067053D02*
X0079296Y0067053D01*
X0079041Y0067552D02*
X0079794Y0067552D01*
X0080293Y0068051D02*
X0079248Y0068051D01*
X0079287Y0068549D02*
X0080791Y0068549D01*
X0081290Y0069048D02*
X0079287Y0069048D01*
X0079208Y0069546D02*
X0081788Y0069546D01*
X0082287Y0070045D02*
X0079001Y0070045D01*
X0078752Y0070543D02*
X0082785Y0070543D01*
X0083284Y0071042D02*
X0078254Y0071042D01*
X0077451Y0071540D02*
X0083782Y0071540D01*
X0087802Y0070045D02*
X0116800Y0070045D01*
X0116800Y0070543D02*
X0088301Y0070543D01*
X0088799Y0071042D02*
X0116800Y0071042D01*
X0116800Y0071540D02*
X0089298Y0071540D01*
X0089796Y0072039D02*
X0116800Y0072039D01*
X0116800Y0072537D02*
X0090295Y0072537D01*
X0090700Y0073036D02*
X0116800Y0073036D01*
X0116800Y0073534D02*
X0090700Y0073534D01*
X0090700Y0074033D02*
X0116800Y0074033D01*
X0116800Y0074531D02*
X0090700Y0074531D01*
X0090700Y0075030D02*
X0116800Y0075030D01*
X0116800Y0075528D02*
X0090700Y0075528D01*
X0090700Y0076027D02*
X0116800Y0076027D01*
X0116800Y0076525D02*
X0090700Y0076525D01*
X0090700Y0077024D02*
X0116800Y0077024D01*
X0116800Y0077522D02*
X0090700Y0077522D01*
X0090700Y0078021D02*
X0116800Y0078021D01*
X0116800Y0078519D02*
X0090700Y0078519D01*
X0090700Y0079018D02*
X0116800Y0079018D01*
X0116800Y0079516D02*
X0090700Y0079516D01*
X0090700Y0080015D02*
X0116800Y0080015D01*
X0116800Y0080513D02*
X0090700Y0080513D01*
X0090700Y0081012D02*
X0116800Y0081012D01*
X0116800Y0081510D02*
X0090806Y0081510D01*
X0091304Y0082009D02*
X0116800Y0082009D01*
X0116800Y0082507D02*
X0091523Y0082507D01*
X0091729Y0083006D02*
X0116800Y0083006D01*
X0116800Y0083504D02*
X0091787Y0083504D01*
X0091787Y0084003D02*
X0116800Y0084003D01*
X0116800Y0084501D02*
X0091726Y0084501D01*
X0091520Y0085000D02*
X0116800Y0085000D01*
X0116800Y0085498D02*
X0091297Y0085498D01*
X0090799Y0085997D02*
X0116800Y0085997D01*
X0116800Y0086495D02*
X0090059Y0086495D01*
X0083217Y0098460D02*
X0115049Y0098460D01*
X0114246Y0098958D02*
X0083716Y0098958D01*
X0084214Y0099457D02*
X0113748Y0099457D01*
X0113499Y0099955D02*
X0084713Y0099955D01*
X0085211Y0100454D02*
X0113292Y0100454D01*
X0123436Y0099955D02*
X0123787Y0099955D01*
X0123436Y0099457D02*
X0124286Y0099457D01*
X0124784Y0098958D02*
X0123436Y0098958D01*
X0123436Y0098460D02*
X0125283Y0098460D01*
X0125781Y0097961D02*
X0123436Y0097961D01*
X0123436Y0097463D02*
X0126280Y0097463D01*
X0126778Y0096964D02*
X0123436Y0096964D01*
X0123436Y0096466D02*
X0127277Y0096466D01*
X0127775Y0095967D02*
X0123436Y0095967D01*
X0123436Y0095469D02*
X0128274Y0095469D01*
X0128772Y0094970D02*
X0123436Y0094970D01*
X0123436Y0094472D02*
X0129271Y0094472D01*
X0129769Y0093973D02*
X0123436Y0093973D01*
X0123436Y0093475D02*
X0130268Y0093475D01*
X0130766Y0092976D02*
X0123234Y0092976D01*
X0122735Y0092478D02*
X0131265Y0092478D01*
X0131763Y0091979D02*
X0122237Y0091979D01*
X0121787Y0091481D02*
X0132262Y0091481D01*
X0132760Y0090982D02*
X0121787Y0090982D01*
X0121720Y0090484D02*
X0133259Y0090484D01*
X0133757Y0089985D02*
X0121514Y0089985D01*
X0121282Y0089487D02*
X0133520Y0089487D01*
X0133314Y0088988D02*
X0120784Y0088988D01*
X0120700Y0088489D02*
X0133213Y0088489D01*
X0133213Y0087991D02*
X0120700Y0087991D01*
X0120700Y0087492D02*
X0133230Y0087492D01*
X0133437Y0086994D02*
X0120700Y0086994D01*
X0120700Y0086495D02*
X0133643Y0086495D01*
X0134097Y0085997D02*
X0120700Y0085997D01*
X0120700Y0085498D02*
X0134690Y0085498D01*
X0137810Y0085498D02*
X0141244Y0085498D01*
X0141742Y0085000D02*
X0120700Y0085000D01*
X0120700Y0084501D02*
X0142241Y0084501D01*
X0142739Y0084003D02*
X0120700Y0084003D01*
X0120700Y0083504D02*
X0143238Y0083504D01*
X0143736Y0083006D02*
X0120700Y0083006D01*
X0120700Y0082507D02*
X0144235Y0082507D01*
X0144733Y0082009D02*
X0120700Y0082009D01*
X0120700Y0081510D02*
X0145232Y0081510D01*
X0145730Y0081012D02*
X0120700Y0081012D01*
X0120700Y0080513D02*
X0146229Y0080513D01*
X0146727Y0080015D02*
X0120700Y0080015D01*
X0120700Y0079516D02*
X0147226Y0079516D01*
X0147725Y0079018D02*
X0120700Y0079018D01*
X0120700Y0078519D02*
X0148223Y0078519D01*
X0148722Y0078021D02*
X0120700Y0078021D01*
X0120700Y0077522D02*
X0149220Y0077522D01*
X0150181Y0077024D02*
X0120700Y0077024D01*
X0120700Y0076525D02*
X0150891Y0076525D01*
X0153609Y0076525D02*
X0156800Y0076525D01*
X0156800Y0076027D02*
X0120700Y0076027D01*
X0120700Y0075528D02*
X0156800Y0075528D01*
X0156800Y0075030D02*
X0120700Y0075030D01*
X0120700Y0074531D02*
X0156800Y0074531D01*
X0156800Y0074033D02*
X0120700Y0074033D01*
X0120700Y0073534D02*
X0156800Y0073534D01*
X0156800Y0073036D02*
X0120700Y0073036D01*
X0120700Y0072537D02*
X0157205Y0072537D01*
X0157704Y0072039D02*
X0120700Y0072039D01*
X0120700Y0071540D02*
X0158202Y0071540D01*
X0158701Y0071042D02*
X0120700Y0071042D01*
X0120700Y0070543D02*
X0159199Y0070543D01*
X0159698Y0070045D02*
X0120700Y0070045D01*
X0120700Y0069546D02*
X0160196Y0069546D01*
X0160695Y0069048D02*
X0120700Y0069048D01*
X0120700Y0068549D02*
X0161193Y0068549D01*
X0161692Y0068051D02*
X0120700Y0068051D01*
X0120700Y0067552D02*
X0162190Y0067552D01*
X0160786Y0074531D02*
X0160727Y0074531D01*
X0160700Y0075030D02*
X0160992Y0075030D01*
X0161233Y0075528D02*
X0160700Y0075528D01*
X0160700Y0076027D02*
X0161731Y0076027D01*
X0162513Y0076525D02*
X0160700Y0076525D01*
X0160700Y0077024D02*
X0162990Y0077024D01*
X0162783Y0077522D02*
X0160700Y0077522D01*
X0160700Y0078021D02*
X0162713Y0078021D01*
X0162713Y0078519D02*
X0160700Y0078519D01*
X0160240Y0079018D02*
X0162761Y0079018D01*
X0162967Y0079516D02*
X0159741Y0079516D01*
X0159243Y0080015D02*
X0163174Y0080015D01*
X0163671Y0080513D02*
X0158744Y0080513D01*
X0158246Y0081012D02*
X0164366Y0081012D01*
X0167134Y0081012D02*
X0169366Y0081012D01*
X0168671Y0080513D02*
X0167829Y0080513D01*
X0171205Y0081510D02*
X0157747Y0081510D01*
X0157249Y0082009D02*
X0171704Y0082009D01*
X0175225Y0080015D02*
X0216757Y0080015D01*
X0217256Y0080513D02*
X0175724Y0080513D01*
X0176222Y0081012D02*
X0217754Y0081012D01*
X0218253Y0081510D02*
X0176721Y0081510D01*
X0177219Y0082009D02*
X0218751Y0082009D01*
X0219250Y0082507D02*
X0177718Y0082507D01*
X0178216Y0083006D02*
X0219748Y0083006D01*
X0220247Y0083504D02*
X0178715Y0083504D01*
X0179213Y0084003D02*
X0220745Y0084003D01*
X0221244Y0084501D02*
X0179712Y0084501D01*
X0180210Y0085000D02*
X0221742Y0085000D01*
X0222241Y0085498D02*
X0180709Y0085498D01*
X0181207Y0085997D02*
X0222739Y0085997D01*
X0223238Y0086495D02*
X0181706Y0086495D01*
X0182204Y0086994D02*
X0223736Y0086994D01*
X0224235Y0087492D02*
X0182703Y0087492D01*
X0183201Y0087991D02*
X0224733Y0087991D01*
X0225232Y0088489D02*
X0183700Y0088489D01*
X0184198Y0088988D02*
X0225730Y0088988D01*
X0226229Y0089487D02*
X0184697Y0089487D01*
X0185195Y0089985D02*
X0226727Y0089985D01*
X0227226Y0090484D02*
X0185694Y0090484D01*
X0186193Y0090982D02*
X0227724Y0090982D01*
X0228223Y0091481D02*
X0186691Y0091481D01*
X0187190Y0091979D02*
X0228721Y0091979D01*
X0229220Y0092478D02*
X0187688Y0092478D01*
X0188187Y0092976D02*
X0229718Y0092976D01*
X0230217Y0093475D02*
X0188685Y0093475D01*
X0189184Y0093973D02*
X0230715Y0093973D01*
X0231214Y0094472D02*
X0189682Y0094472D01*
X0190181Y0094970D02*
X0231712Y0094970D01*
X0231800Y0095469D02*
X0190679Y0095469D01*
X0191178Y0095967D02*
X0232174Y0095967D01*
X0232672Y0096466D02*
X0191676Y0096466D01*
X0192175Y0096964D02*
X0233171Y0096964D01*
X0233669Y0097463D02*
X0192673Y0097463D01*
X0193172Y0097961D02*
X0234168Y0097961D01*
X0234250Y0099457D02*
X0193200Y0099457D01*
X0193200Y0099955D02*
X0233752Y0099955D01*
X0233253Y0100454D02*
X0193200Y0100454D01*
X0193200Y0100952D02*
X0232754Y0100952D01*
X0232256Y0101451D02*
X0193200Y0101451D01*
X0193200Y0101949D02*
X0231800Y0101949D01*
X0231800Y0102448D02*
X0193200Y0102448D01*
X0193200Y0102946D02*
X0231800Y0102946D01*
X0231800Y0103445D02*
X0193200Y0103445D01*
X0193200Y0103943D02*
X0231800Y0103943D01*
X0231800Y0104442D02*
X0193200Y0104442D01*
X0193200Y0104940D02*
X0231800Y0104940D01*
X0231800Y0105439D02*
X0193200Y0105439D01*
X0193200Y0105937D02*
X0232144Y0105937D01*
X0232643Y0106436D02*
X0193200Y0106436D01*
X0193200Y0106934D02*
X0233141Y0106934D01*
X0233640Y0107433D02*
X0193200Y0107433D01*
X0193200Y0107931D02*
X0234138Y0107931D01*
X0234407Y0109300D02*
X0238093Y0109300D01*
X0240700Y0111907D01*
X0240700Y0115593D01*
X0238093Y0118200D01*
X0234407Y0118200D01*
X0231800Y0115593D01*
X0231800Y0111907D01*
X0234407Y0109300D01*
X0234280Y0109427D02*
X0193200Y0109427D01*
X0193200Y0109925D02*
X0233781Y0109925D01*
X0233283Y0110424D02*
X0193200Y0110424D01*
X0193200Y0110922D02*
X0232784Y0110922D01*
X0232286Y0111421D02*
X0193200Y0111421D01*
X0193200Y0111920D02*
X0231800Y0111920D01*
X0231800Y0112418D02*
X0193200Y0112418D01*
X0193200Y0112917D02*
X0231800Y0112917D01*
X0231800Y0113415D02*
X0193200Y0113415D01*
X0193200Y0113914D02*
X0231800Y0113914D01*
X0231800Y0114412D02*
X0193200Y0114412D01*
X0193200Y0114911D02*
X0231800Y0114911D01*
X0231800Y0115409D02*
X0193200Y0115409D01*
X0193200Y0115908D02*
X0232114Y0115908D01*
X0232613Y0116406D02*
X0193200Y0116406D01*
X0193200Y0116905D02*
X0233111Y0116905D01*
X0233610Y0117403D02*
X0193200Y0117403D01*
X0193200Y0117902D02*
X0234108Y0117902D01*
X0238392Y0117902D02*
X0249800Y0117902D01*
X0249800Y0118400D02*
X0193696Y0118400D01*
X0193978Y0118899D02*
X0249800Y0118899D01*
X0249800Y0119397D02*
X0194184Y0119397D01*
X0194287Y0119896D02*
X0249800Y0119896D01*
X0249800Y0120394D02*
X0194287Y0120394D01*
X0194271Y0120893D02*
X0249800Y0120893D01*
X0249800Y0121391D02*
X0194065Y0121391D01*
X0193858Y0121890D02*
X0249800Y0121890D01*
X0249800Y0122388D02*
X0193407Y0122388D01*
X0192821Y0122887D02*
X0249800Y0122887D01*
X0249800Y0117403D02*
X0238890Y0117403D01*
X0239389Y0116905D02*
X0249800Y0116905D01*
X0249800Y0116406D02*
X0239887Y0116406D01*
X0240386Y0115908D02*
X0249800Y0115908D01*
X0249800Y0115409D02*
X0240700Y0115409D01*
X0240700Y0114911D02*
X0249800Y0114911D01*
X0249800Y0114412D02*
X0240700Y0114412D01*
X0240700Y0113914D02*
X0249800Y0113914D01*
X0249800Y0113415D02*
X0240700Y0113415D01*
X0240700Y0112917D02*
X0249800Y0112917D01*
X0249800Y0112418D02*
X0240700Y0112418D01*
X0240700Y0111920D02*
X0249800Y0111920D01*
X0249800Y0111421D02*
X0240214Y0111421D01*
X0239716Y0110922D02*
X0249800Y0110922D01*
X0249800Y0110424D02*
X0239217Y0110424D01*
X0238719Y0109925D02*
X0249800Y0109925D01*
X0249800Y0109427D02*
X0238220Y0109427D01*
X0238362Y0107931D02*
X0249800Y0107931D01*
X0249800Y0107433D02*
X0238860Y0107433D01*
X0239359Y0106934D02*
X0249800Y0106934D01*
X0249800Y0106436D02*
X0239857Y0106436D01*
X0240356Y0105937D02*
X0249800Y0105937D01*
X0249800Y0105439D02*
X0240700Y0105439D01*
X0240700Y0104940D02*
X0249800Y0104940D01*
X0249800Y0104442D02*
X0240700Y0104442D01*
X0240700Y0103943D02*
X0249800Y0103943D01*
X0249800Y0103445D02*
X0240700Y0103445D01*
X0240700Y0102946D02*
X0249800Y0102946D01*
X0249800Y0102448D02*
X0240700Y0102448D01*
X0240808Y0101949D02*
X0249800Y0101949D01*
X0249800Y0101451D02*
X0241307Y0101451D01*
X0241805Y0100952D02*
X0249800Y0100952D01*
X0249800Y0100454D02*
X0242304Y0100454D01*
X0242802Y0099955D02*
X0249800Y0099955D01*
X0249800Y0099457D02*
X0243200Y0099457D01*
X0243200Y0098958D02*
X0249800Y0098958D01*
X0249800Y0098460D02*
X0243200Y0098460D01*
X0243200Y0097961D02*
X0249800Y0097961D01*
X0249800Y0097463D02*
X0243200Y0097463D01*
X0243200Y0096964D02*
X0249800Y0096964D01*
X0249800Y0096466D02*
X0243200Y0096466D01*
X0243200Y0095967D02*
X0249800Y0095967D01*
X0249800Y0095469D02*
X0243200Y0095469D01*
X0243200Y0094970D02*
X0249800Y0094970D01*
X0249800Y0094472D02*
X0243200Y0094472D01*
X0243200Y0093973D02*
X0249800Y0093973D01*
X0249800Y0093475D02*
X0243200Y0093475D01*
X0243200Y0092976D02*
X0249800Y0092976D01*
X0249800Y0092478D02*
X0243200Y0092478D01*
X0243200Y0091979D02*
X0249800Y0091979D01*
X0249800Y0091481D02*
X0243200Y0091481D01*
X0243200Y0090982D02*
X0249800Y0090982D01*
X0249800Y0090484D02*
X0243200Y0090484D01*
X0242743Y0089985D02*
X0249800Y0089985D01*
X0249800Y0089487D02*
X0242244Y0089487D01*
X0241746Y0088988D02*
X0249800Y0088988D01*
X0249800Y0088489D02*
X0241247Y0088489D01*
X0240749Y0087991D02*
X0249800Y0087991D01*
X0249800Y0087492D02*
X0240250Y0087492D01*
X0239752Y0086994D02*
X0249800Y0086994D01*
X0249800Y0086495D02*
X0239515Y0086495D01*
X0240013Y0085997D02*
X0249800Y0085997D01*
X0249800Y0085498D02*
X0240500Y0085498D01*
X0240500Y0085000D02*
X0249800Y0085000D01*
X0249800Y0084501D02*
X0240500Y0084501D01*
X0240500Y0084003D02*
X0249800Y0084003D01*
X0249800Y0083504D02*
X0236500Y0083504D01*
X0236500Y0083500D02*
X0240500Y0083500D01*
X0240500Y0081990D01*
X0238010Y0079500D01*
X0236500Y0079500D01*
X0236500Y0083500D01*
X0236500Y0083006D02*
X0236000Y0083006D01*
X0236000Y0083500D02*
X0236000Y0079500D01*
X0234490Y0079500D01*
X0232000Y0081990D01*
X0232000Y0083500D01*
X0236000Y0083500D01*
X0236000Y0083504D02*
X0228762Y0083504D01*
X0228264Y0083006D02*
X0232000Y0083006D01*
X0232000Y0082507D02*
X0227765Y0082507D01*
X0227267Y0082009D02*
X0232000Y0082009D01*
X0232479Y0081510D02*
X0226768Y0081510D01*
X0226270Y0081012D02*
X0232978Y0081012D01*
X0233476Y0080513D02*
X0225771Y0080513D01*
X0225273Y0080015D02*
X0233975Y0080015D01*
X0234473Y0079516D02*
X0224774Y0079516D01*
X0224275Y0079018D02*
X0249800Y0079018D01*
X0249800Y0079516D02*
X0238027Y0079516D01*
X0238525Y0080015D02*
X0249800Y0080015D01*
X0249800Y0080513D02*
X0239024Y0080513D01*
X0239522Y0081012D02*
X0249800Y0081012D01*
X0249800Y0081510D02*
X0240021Y0081510D01*
X0240500Y0082009D02*
X0249800Y0082009D01*
X0249800Y0082507D02*
X0240500Y0082507D01*
X0240500Y0083006D02*
X0249800Y0083006D01*
X0249800Y0078519D02*
X0223777Y0078519D01*
X0223278Y0078021D02*
X0249800Y0078021D01*
X0249800Y0077522D02*
X0222780Y0077522D01*
X0222281Y0077024D02*
X0249800Y0077024D01*
X0249800Y0076525D02*
X0221783Y0076525D01*
X0221284Y0076027D02*
X0249800Y0076027D01*
X0249800Y0075528D02*
X0220786Y0075528D01*
X0220287Y0075030D02*
X0249800Y0075030D01*
X0249800Y0074531D02*
X0219789Y0074531D01*
X0219290Y0074033D02*
X0249800Y0074033D01*
X0249800Y0073534D02*
X0218792Y0073534D01*
X0218293Y0073036D02*
X0249800Y0073036D01*
X0249800Y0072537D02*
X0217795Y0072537D01*
X0217296Y0072039D02*
X0249800Y0072039D01*
X0249800Y0071540D02*
X0216798Y0071540D01*
X0216299Y0071042D02*
X0249800Y0071042D01*
X0249800Y0070543D02*
X0215801Y0070543D01*
X0215302Y0070045D02*
X0249800Y0070045D01*
X0249800Y0069546D02*
X0214804Y0069546D01*
X0212270Y0075528D02*
X0172002Y0075528D01*
X0172775Y0076027D02*
X0212769Y0076027D01*
X0213268Y0076525D02*
X0173273Y0076525D01*
X0173510Y0077024D02*
X0213766Y0077024D01*
X0214265Y0077522D02*
X0173717Y0077522D01*
X0173787Y0078021D02*
X0214763Y0078021D01*
X0215262Y0078519D02*
X0173787Y0078519D01*
X0174228Y0079018D02*
X0215760Y0079018D01*
X0216259Y0079516D02*
X0174727Y0079516D01*
X0178710Y0069048D02*
X0249800Y0069048D01*
X0249800Y0068549D02*
X0179209Y0068549D01*
X0179707Y0068051D02*
X0249800Y0068051D01*
X0249800Y0067552D02*
X0180206Y0067552D01*
X0180704Y0067053D02*
X0249800Y0067053D01*
X0249800Y0066555D02*
X0181203Y0066555D01*
X0181701Y0066056D02*
X0249800Y0066056D01*
X0249800Y0065558D02*
X0182200Y0065558D01*
X0182698Y0065059D02*
X0249800Y0065059D01*
X0249800Y0064561D02*
X0183197Y0064561D01*
X0184897Y0064062D02*
X0249800Y0064062D01*
X0249800Y0063564D02*
X0185732Y0063564D01*
X0186230Y0063065D02*
X0249800Y0063065D01*
X0249800Y0062567D02*
X0186492Y0062567D01*
X0186699Y0062068D02*
X0249800Y0062068D01*
X0249800Y0061570D02*
X0186787Y0061570D01*
X0186787Y0061071D02*
X0249800Y0061071D01*
X0249800Y0060573D02*
X0186757Y0060573D01*
X0186551Y0060074D02*
X0249800Y0060074D01*
X0249800Y0059576D02*
X0186344Y0059576D01*
X0185873Y0059077D02*
X0249800Y0059077D01*
X0249800Y0058579D02*
X0185700Y0058579D01*
X0185700Y0058080D02*
X0249800Y0058080D01*
X0249800Y0057582D02*
X0185700Y0057582D01*
X0185700Y0057083D02*
X0249800Y0057083D01*
X0249800Y0056585D02*
X0185700Y0056585D01*
X0185700Y0056086D02*
X0249800Y0056086D01*
X0249800Y0055588D02*
X0185700Y0055588D01*
X0185700Y0055089D02*
X0249800Y0055089D01*
X0249800Y0054591D02*
X0185700Y0054591D01*
X0185700Y0054092D02*
X0249800Y0054092D01*
X0249800Y0053594D02*
X0185700Y0053594D01*
X0185700Y0053095D02*
X0249800Y0053095D01*
X0249800Y0052597D02*
X0185700Y0052597D01*
X0185700Y0052098D02*
X0249800Y0052098D01*
X0249800Y0051600D02*
X0185700Y0051600D01*
X0185700Y0051101D02*
X0249800Y0051101D01*
X0249800Y0050603D02*
X0185700Y0050603D01*
X0185700Y0050104D02*
X0249800Y0050104D01*
X0249800Y0049606D02*
X0185700Y0049606D01*
X0185700Y0049107D02*
X0249800Y0049107D01*
X0249800Y0048609D02*
X0185700Y0048609D01*
X0185700Y0048110D02*
X0249800Y0048110D01*
X0249800Y0047612D02*
X0185700Y0047612D01*
X0185700Y0047113D02*
X0249800Y0047113D01*
X0249800Y0046615D02*
X0185700Y0046615D01*
X0185700Y0046116D02*
X0249800Y0046116D01*
X0249800Y0045618D02*
X0185700Y0045618D01*
X0185700Y0045119D02*
X0249800Y0045119D01*
X0249800Y0044620D02*
X0185700Y0044620D01*
X0186136Y0044122D02*
X0249800Y0044122D01*
X0249800Y0043623D02*
X0186634Y0043623D01*
X0187133Y0043125D02*
X0249800Y0043125D01*
X0249800Y0042626D02*
X0187631Y0042626D01*
X0188130Y0042128D02*
X0249800Y0042128D01*
X0249800Y0041629D02*
X0188628Y0041629D01*
X0189127Y0041131D02*
X0249800Y0041131D01*
X0249800Y0040632D02*
X0189625Y0040632D01*
X0190124Y0040134D02*
X0249800Y0040134D01*
X0249800Y0039635D02*
X0190622Y0039635D01*
X0191121Y0039137D02*
X0249800Y0039137D01*
X0249800Y0038638D02*
X0191619Y0038638D01*
X0192118Y0038140D02*
X0249800Y0038140D01*
X0249800Y0037641D02*
X0192616Y0037641D01*
X0193115Y0037143D02*
X0249800Y0037143D01*
X0249800Y0036644D02*
X0193613Y0036644D01*
X0194112Y0036146D02*
X0249800Y0036146D01*
X0249800Y0035647D02*
X0194610Y0035647D01*
X0195109Y0035149D02*
X0249800Y0035149D01*
X0249800Y0034650D02*
X0195607Y0034650D01*
X0196106Y0034152D02*
X0249800Y0034152D01*
X0249800Y0033653D02*
X0196604Y0033653D01*
X0197103Y0033155D02*
X0249800Y0033155D01*
X0249800Y0032656D02*
X0197601Y0032656D01*
X0198100Y0032158D02*
X0249800Y0032158D01*
X0249800Y0031659D02*
X0198599Y0031659D01*
X0199097Y0031161D02*
X0249800Y0031161D01*
X0249800Y0030662D02*
X0199596Y0030662D01*
X0200094Y0030164D02*
X0249800Y0030164D01*
X0249800Y0029665D02*
X0200593Y0029665D01*
X0201091Y0029167D02*
X0249800Y0029167D01*
X0249800Y0028668D02*
X0201590Y0028668D01*
X0202088Y0028170D02*
X0249800Y0028170D01*
X0249800Y0027671D02*
X0202587Y0027671D01*
X0203085Y0027173D02*
X0249800Y0027173D01*
X0249800Y0026674D02*
X0203584Y0026674D01*
X0204082Y0026176D02*
X0249800Y0026176D01*
X0249800Y0025677D02*
X0204581Y0025677D01*
X0205079Y0025179D02*
X0249800Y0025179D01*
X0249800Y0024680D02*
X0205578Y0024680D01*
X0206076Y0024182D02*
X0249800Y0024182D01*
X0249800Y0023683D02*
X0206575Y0023683D01*
X0207073Y0023184D02*
X0249800Y0023184D01*
X0249800Y0022686D02*
X0207572Y0022686D01*
X0208070Y0022187D02*
X0249800Y0022187D01*
X0249800Y0021689D02*
X0208569Y0021689D01*
X0209067Y0021190D02*
X0209720Y0021190D01*
X0212780Y0021190D02*
X0220800Y0021190D01*
X0221000Y0021190D02*
X0221500Y0021190D01*
X0221500Y0021200D02*
X0221500Y0016500D01*
X0226200Y0016500D01*
X0226200Y0016640D01*
X0226078Y0017409D01*
X0225837Y0018150D01*
X0225484Y0018844D01*
X0225026Y0019475D01*
X0224475Y0020026D01*
X0223844Y0020484D01*
X0223150Y0020837D01*
X0222409Y0021078D01*
X0221640Y0021200D01*
X0221500Y0021200D01*
X0221700Y0021190D02*
X0249800Y0021190D01*
X0249800Y0020692D02*
X0223435Y0020692D01*
X0224244Y0020193D02*
X0249800Y0020193D01*
X0249800Y0019695D02*
X0224805Y0019695D01*
X0225228Y0019196D02*
X0249800Y0019196D01*
X0249800Y0018698D02*
X0225558Y0018698D01*
X0225812Y0018199D02*
X0249800Y0018199D01*
X0249800Y0017701D02*
X0225983Y0017701D01*
X0226111Y0017202D02*
X0249800Y0017202D01*
X0249800Y0016704D02*
X0226190Y0016704D01*
X0226200Y0016000D02*
X0221500Y0016000D01*
X0221500Y0011300D01*
X0221640Y0011300D01*
X0222409Y0011422D01*
X0223150Y0011663D01*
X0223844Y0012016D01*
X0224475Y0012474D01*
X0225026Y0013025D01*
X0225484Y0013656D01*
X0225837Y0014350D01*
X0226078Y0015091D01*
X0226200Y0015860D01*
X0226200Y0016000D01*
X0226176Y0015707D02*
X0249800Y0015707D01*
X0249800Y0016205D02*
X0221500Y0016205D01*
X0221500Y0015707D02*
X0221000Y0015707D01*
X0221000Y0015208D02*
X0221500Y0015208D01*
X0221500Y0014710D02*
X0221000Y0014710D01*
X0221000Y0014211D02*
X0221500Y0014211D01*
X0221500Y0013713D02*
X0221000Y0013713D01*
X0221000Y0013214D02*
X0221500Y0013214D01*
X0221500Y0012716D02*
X0221000Y0012716D01*
X0221000Y0012217D02*
X0221500Y0012217D01*
X0221500Y0011719D02*
X0221000Y0011719D01*
X0219240Y0011719D02*
X0213768Y0011719D01*
X0214500Y0012217D02*
X0218379Y0012217D01*
X0217784Y0012716D02*
X0214999Y0012716D01*
X0215497Y0013214D02*
X0217337Y0013214D01*
X0216987Y0013713D02*
X0215773Y0013713D01*
X0215980Y0014211D02*
X0216733Y0014211D01*
X0216546Y0014710D02*
X0216186Y0014710D01*
X0216393Y0015208D02*
X0216403Y0015208D01*
X0216517Y0017701D02*
X0216223Y0017701D01*
X0216017Y0018199D02*
X0216688Y0018199D01*
X0216942Y0018698D02*
X0215810Y0018698D01*
X0215587Y0019196D02*
X0217272Y0019196D01*
X0217695Y0019695D02*
X0215088Y0019695D01*
X0214590Y0020193D02*
X0218256Y0020193D01*
X0219065Y0020692D02*
X0213984Y0020692D01*
X0221000Y0020692D02*
X0221500Y0020692D01*
X0221500Y0020193D02*
X0221000Y0020193D01*
X0221000Y0019695D02*
X0221500Y0019695D01*
X0221500Y0019196D02*
X0221000Y0019196D01*
X0221000Y0018698D02*
X0221500Y0018698D01*
X0221500Y0018199D02*
X0221000Y0018199D01*
X0221000Y0017701D02*
X0221500Y0017701D01*
X0221500Y0017202D02*
X0221000Y0017202D01*
X0221000Y0016704D02*
X0221500Y0016704D01*
X0226097Y0015208D02*
X0249800Y0015208D01*
X0249800Y0014710D02*
X0225954Y0014710D01*
X0225767Y0014211D02*
X0249800Y0014211D01*
X0249800Y0013713D02*
X0225513Y0013713D01*
X0225163Y0013214D02*
X0249800Y0013214D01*
X0249800Y0012716D02*
X0224716Y0012716D01*
X0224121Y0012217D02*
X0249800Y0012217D01*
X0249800Y0011719D02*
X0223260Y0011719D01*
X0212565Y0011220D02*
X0249800Y0011220D01*
X0249800Y0010722D02*
X0002700Y0010722D01*
X0002700Y0011220D02*
X0209935Y0011220D01*
X0208732Y0011719D02*
X0002700Y0011719D01*
X0002700Y0012217D02*
X0208000Y0012217D01*
X0207501Y0012716D02*
X0002700Y0012716D01*
X0002700Y0013214D02*
X0207003Y0013214D01*
X0206727Y0013713D02*
X0002700Y0013713D01*
X0002700Y0014211D02*
X0206520Y0014211D01*
X0206314Y0014710D02*
X0002700Y0014710D01*
X0002700Y0015208D02*
X0206107Y0015208D01*
X0206100Y0015707D02*
X0002700Y0015707D01*
X0002700Y0016205D02*
X0206100Y0016205D01*
X0206100Y0016704D02*
X0002700Y0016704D01*
X0002700Y0017202D02*
X0206100Y0017202D01*
X0206277Y0017701D02*
X0002700Y0017701D01*
X0002700Y0018199D02*
X0206483Y0018199D01*
X0206044Y0018698D02*
X0002700Y0018698D01*
X0002700Y0019196D02*
X0205546Y0019196D01*
X0205047Y0019695D02*
X0002700Y0019695D01*
X0002700Y0020193D02*
X0204549Y0020193D01*
X0204050Y0020692D02*
X0002700Y0020692D01*
X0002700Y0021190D02*
X0203552Y0021190D01*
X0203053Y0021689D02*
X0002700Y0021689D01*
X0002700Y0022187D02*
X0202555Y0022187D01*
X0202056Y0022686D02*
X0002700Y0022686D01*
X0002700Y0023184D02*
X0201558Y0023184D01*
X0201059Y0023683D02*
X0002700Y0023683D01*
X0002700Y0024182D02*
X0200561Y0024182D01*
X0200062Y0024680D02*
X0002700Y0024680D01*
X0002700Y0025179D02*
X0199564Y0025179D01*
X0199065Y0025677D02*
X0002700Y0025677D01*
X0002700Y0026176D02*
X0117029Y0026176D01*
X0116530Y0026674D02*
X0002700Y0026674D01*
X0002700Y0027173D02*
X0116116Y0027173D01*
X0115909Y0027671D02*
X0002700Y0027671D01*
X0002700Y0028170D02*
X0115713Y0028170D01*
X0115713Y0028668D02*
X0002700Y0028668D01*
X0002700Y0029167D02*
X0115713Y0029167D01*
X0115841Y0029665D02*
X0002700Y0029665D01*
X0002700Y0030164D02*
X0116048Y0030164D01*
X0116367Y0030662D02*
X0002700Y0030662D01*
X0002700Y0031161D02*
X0116800Y0031161D01*
X0116800Y0031659D02*
X0002700Y0031659D01*
X0002700Y0032158D02*
X0116800Y0032158D01*
X0116800Y0032656D02*
X0002700Y0032656D01*
X0002700Y0033155D02*
X0116800Y0033155D01*
X0116800Y0033653D02*
X0002700Y0033653D01*
X0002700Y0034152D02*
X0116800Y0034152D01*
X0116800Y0034650D02*
X0002700Y0034650D01*
X0002700Y0035149D02*
X0116800Y0035149D01*
X0116800Y0035647D02*
X0002700Y0035647D01*
X0002700Y0036146D02*
X0116800Y0036146D01*
X0116800Y0036644D02*
X0002700Y0036644D01*
X0002700Y0037143D02*
X0116800Y0037143D01*
X0116800Y0037641D02*
X0002700Y0037641D01*
X0002700Y0038140D02*
X0116800Y0038140D01*
X0116800Y0038638D02*
X0002700Y0038638D01*
X0002700Y0039137D02*
X0116800Y0039137D01*
X0116800Y0039635D02*
X0002700Y0039635D01*
X0002700Y0040134D02*
X0116800Y0040134D01*
X0116800Y0040632D02*
X0002700Y0040632D01*
X0002700Y0041131D02*
X0116800Y0041131D01*
X0116800Y0041629D02*
X0002700Y0041629D01*
X0002700Y0042128D02*
X0116800Y0042128D01*
X0116800Y0042626D02*
X0002700Y0042626D01*
X0002700Y0043125D02*
X0116800Y0043125D01*
X0116800Y0043623D02*
X0062846Y0043623D01*
X0063418Y0044122D02*
X0116800Y0044122D01*
X0116800Y0044620D02*
X0063863Y0044620D01*
X0064069Y0045119D02*
X0116800Y0045119D01*
X0116800Y0045618D02*
X0064276Y0045618D01*
X0064287Y0046116D02*
X0116800Y0046116D01*
X0116800Y0046615D02*
X0064372Y0046615D01*
X0064871Y0047113D02*
X0116800Y0047113D01*
X0116800Y0047612D02*
X0065369Y0047612D01*
X0065868Y0048110D02*
X0116800Y0048110D01*
X0116800Y0048609D02*
X0066366Y0048609D01*
X0066865Y0049107D02*
X0116597Y0049107D01*
X0116143Y0049606D02*
X0067363Y0049606D01*
X0067862Y0050104D02*
X0115937Y0050104D01*
X0115730Y0050603D02*
X0068360Y0050603D01*
X0068859Y0051101D02*
X0115713Y0051101D01*
X0115713Y0051600D02*
X0069357Y0051600D01*
X0069856Y0052098D02*
X0115814Y0052098D01*
X0116020Y0052597D02*
X0070354Y0052597D01*
X0070853Y0053095D02*
X0116300Y0053095D01*
X0116798Y0053594D02*
X0071351Y0053594D01*
X0071850Y0054092D02*
X0116800Y0054092D01*
X0116800Y0054591D02*
X0072348Y0054591D01*
X0072847Y0055089D02*
X0116800Y0055089D01*
X0116800Y0055588D02*
X0073345Y0055588D01*
X0073844Y0056086D02*
X0116800Y0056086D01*
X0116800Y0056585D02*
X0074342Y0056585D01*
X0074841Y0057083D02*
X0116800Y0057083D01*
X0116800Y0057582D02*
X0075339Y0057582D01*
X0075838Y0058080D02*
X0116800Y0058080D01*
X0116800Y0058579D02*
X0076337Y0058579D01*
X0076835Y0059077D02*
X0116800Y0059077D01*
X0116800Y0059576D02*
X0077334Y0059576D01*
X0077832Y0060074D02*
X0116800Y0060074D01*
X0116800Y0060573D02*
X0078331Y0060573D01*
X0078829Y0061071D02*
X0116800Y0061071D01*
X0116800Y0061570D02*
X0079328Y0061570D01*
X0079826Y0062068D02*
X0116800Y0062068D01*
X0116800Y0062567D02*
X0080325Y0062567D01*
X0080823Y0063065D02*
X0116800Y0063065D01*
X0116800Y0063564D02*
X0081322Y0063564D01*
X0081820Y0064062D02*
X0116800Y0064062D01*
X0116800Y0064561D02*
X0082319Y0064561D01*
X0082817Y0065059D02*
X0116800Y0065059D01*
X0116800Y0065558D02*
X0083316Y0065558D01*
X0083814Y0066056D02*
X0116800Y0066056D01*
X0116800Y0066555D02*
X0084313Y0066555D01*
X0084811Y0067053D02*
X0116800Y0067053D01*
X0116800Y0067552D02*
X0085310Y0067552D01*
X0085808Y0068051D02*
X0116800Y0068051D01*
X0116800Y0068549D02*
X0086307Y0068549D01*
X0086805Y0069048D02*
X0116800Y0069048D01*
X0116800Y0069546D02*
X0087304Y0069546D01*
X0077302Y0065059D02*
X0075317Y0065059D01*
X0074819Y0064561D02*
X0076803Y0064561D01*
X0076305Y0064062D02*
X0029721Y0064062D01*
X0030219Y0063564D02*
X0075806Y0063564D01*
X0075308Y0063065D02*
X0030400Y0063065D01*
X0030400Y0062567D02*
X0074809Y0062567D01*
X0074311Y0062068D02*
X0030400Y0062068D01*
X0030400Y0061570D02*
X0073812Y0061570D01*
X0073314Y0061071D02*
X0030400Y0061071D01*
X0030400Y0060573D02*
X0072815Y0060573D01*
X0072317Y0060074D02*
X0030400Y0060074D01*
X0030400Y0059576D02*
X0071818Y0059576D01*
X0071320Y0059077D02*
X0030361Y0059077D01*
X0029862Y0058579D02*
X0070821Y0058579D01*
X0070323Y0058080D02*
X0029363Y0058080D01*
X0028865Y0057582D02*
X0069824Y0057582D01*
X0069326Y0057083D02*
X0028366Y0057083D01*
X0027868Y0056585D02*
X0068827Y0056585D01*
X0068329Y0056086D02*
X0002700Y0056086D01*
X0002700Y0055588D02*
X0067830Y0055588D01*
X0067332Y0055089D02*
X0002700Y0055089D01*
X0002700Y0054591D02*
X0066833Y0054591D01*
X0066334Y0054092D02*
X0002700Y0054092D01*
X0002700Y0053594D02*
X0065836Y0053594D01*
X0065337Y0053095D02*
X0002700Y0053095D01*
X0002700Y0052597D02*
X0064839Y0052597D01*
X0064340Y0052098D02*
X0002700Y0052098D01*
X0002700Y0051600D02*
X0063842Y0051600D01*
X0063343Y0051101D02*
X0002700Y0051101D01*
X0002700Y0050603D02*
X0062845Y0050603D01*
X0062346Y0050104D02*
X0002700Y0050104D01*
X0002700Y0049606D02*
X0061848Y0049606D01*
X0060211Y0049107D02*
X0002700Y0049107D01*
X0002700Y0048609D02*
X0059313Y0048609D01*
X0058815Y0048110D02*
X0002700Y0048110D01*
X0002700Y0047612D02*
X0058526Y0047612D01*
X0058320Y0047113D02*
X0002700Y0047113D01*
X0002700Y0046615D02*
X0058213Y0046615D01*
X0058213Y0046116D02*
X0002700Y0046116D01*
X0002700Y0045618D02*
X0058224Y0045618D01*
X0058431Y0045119D02*
X0002700Y0045119D01*
X0002700Y0044620D02*
X0058637Y0044620D01*
X0059082Y0044122D02*
X0002700Y0044122D01*
X0002700Y0043623D02*
X0059654Y0043623D01*
X0022632Y0056585D02*
X0017868Y0056585D01*
X0018366Y0057083D02*
X0022134Y0057083D01*
X0021635Y0057582D02*
X0018865Y0057582D01*
X0019363Y0058080D02*
X0021137Y0058080D01*
X0020638Y0058579D02*
X0019862Y0058579D01*
X0012632Y0056585D02*
X0002700Y0056585D01*
X0002700Y0057083D02*
X0012134Y0057083D01*
X0011635Y0057582D02*
X0002700Y0057582D01*
X0002700Y0058080D02*
X0011137Y0058080D01*
X0010638Y0058579D02*
X0002700Y0058579D01*
X0002700Y0059077D02*
X0010139Y0059077D01*
X0010100Y0059576D02*
X0002700Y0059576D01*
X0002700Y0060074D02*
X0010100Y0060074D01*
X0010100Y0060573D02*
X0002700Y0060573D01*
X0002700Y0061071D02*
X0010100Y0061071D01*
X0010100Y0061570D02*
X0002700Y0061570D01*
X0002700Y0062068D02*
X0010100Y0062068D01*
X0010100Y0062567D02*
X0002700Y0062567D01*
X0002700Y0063065D02*
X0010100Y0063065D01*
X0010281Y0063564D02*
X0002700Y0063564D01*
X0002700Y0064062D02*
X0010779Y0064062D01*
X0011278Y0064561D02*
X0002700Y0064561D01*
X0002700Y0065059D02*
X0011776Y0065059D01*
X0012275Y0065558D02*
X0002700Y0065558D01*
X0002700Y0066056D02*
X0012773Y0066056D01*
X0012662Y0066555D02*
X0002700Y0066555D01*
X0002700Y0067053D02*
X0012163Y0067053D01*
X0011665Y0067552D02*
X0002700Y0067552D01*
X0002700Y0068051D02*
X0011166Y0068051D01*
X0010668Y0068549D02*
X0002700Y0068549D01*
X0002700Y0069048D02*
X0010169Y0069048D01*
X0010100Y0069546D02*
X0002700Y0069546D01*
X0002700Y0070045D02*
X0010100Y0070045D01*
X0010100Y0070543D02*
X0002700Y0070543D01*
X0002700Y0071042D02*
X0010100Y0071042D01*
X0010100Y0071540D02*
X0002700Y0071540D01*
X0002700Y0072039D02*
X0010100Y0072039D01*
X0010100Y0072537D02*
X0002700Y0072537D01*
X0002700Y0073036D02*
X0010100Y0073036D01*
X0010251Y0073534D02*
X0002700Y0073534D01*
X0002700Y0074033D02*
X0010749Y0074033D01*
X0011248Y0074531D02*
X0002700Y0074531D01*
X0002700Y0075030D02*
X0011746Y0075030D01*
X0012245Y0075528D02*
X0002700Y0075528D01*
X0002700Y0076027D02*
X0012744Y0076027D01*
X0012692Y0076525D02*
X0002700Y0076525D01*
X0002700Y0077024D02*
X0012193Y0077024D01*
X0011695Y0077522D02*
X0002700Y0077522D01*
X0002700Y0078021D02*
X0011196Y0078021D01*
X0010698Y0078519D02*
X0002700Y0078519D01*
X0002700Y0079018D02*
X0010199Y0079018D01*
X0010100Y0079516D02*
X0002700Y0079516D01*
X0002700Y0080015D02*
X0010100Y0080015D01*
X0010100Y0080513D02*
X0002700Y0080513D01*
X0002700Y0081012D02*
X0010100Y0081012D01*
X0010100Y0081510D02*
X0002700Y0081510D01*
X0002700Y0082009D02*
X0010100Y0082009D01*
X0010100Y0082507D02*
X0002700Y0082507D01*
X0002700Y0083006D02*
X0010100Y0083006D01*
X0010221Y0083504D02*
X0002700Y0083504D01*
X0002700Y0084003D02*
X0010720Y0084003D01*
X0011218Y0084501D02*
X0002700Y0084501D01*
X0002700Y0085000D02*
X0011717Y0085000D01*
X0012215Y0085498D02*
X0002700Y0085498D01*
X0002700Y0085997D02*
X0012714Y0085997D01*
X0012721Y0086495D02*
X0002700Y0086495D01*
X0002700Y0086994D02*
X0012223Y0086994D01*
X0011724Y0087492D02*
X0002700Y0087492D01*
X0002700Y0087991D02*
X0011226Y0087991D01*
X0010727Y0088489D02*
X0002700Y0088489D01*
X0002700Y0088988D02*
X0010229Y0088988D01*
X0010100Y0089487D02*
X0002700Y0089487D01*
X0002700Y0089985D02*
X0010100Y0089985D01*
X0010100Y0090484D02*
X0002700Y0090484D01*
X0002700Y0090982D02*
X0010100Y0090982D01*
X0010100Y0091481D02*
X0002700Y0091481D01*
X0002700Y0091979D02*
X0010100Y0091979D01*
X0010100Y0092478D02*
X0002700Y0092478D01*
X0002700Y0092976D02*
X0010100Y0092976D01*
X0010191Y0093475D02*
X0002700Y0093475D01*
X0002700Y0093973D02*
X0010690Y0093973D01*
X0011188Y0094472D02*
X0002700Y0094472D01*
X0002700Y0094970D02*
X0011687Y0094970D01*
X0012185Y0095469D02*
X0002700Y0095469D01*
X0002700Y0095967D02*
X0012684Y0095967D01*
X0013034Y0096466D02*
X0002700Y0096466D01*
X0002700Y0096964D02*
X0012535Y0096964D01*
X0012037Y0097463D02*
X0002700Y0097463D01*
X0002700Y0097961D02*
X0011538Y0097961D01*
X0011040Y0098460D02*
X0002700Y0098460D01*
X0002700Y0098958D02*
X0010541Y0098958D01*
X0010300Y0099457D02*
X0002700Y0099457D01*
X0002700Y0099955D02*
X0010300Y0099955D01*
X0010300Y0100454D02*
X0002700Y0100454D01*
X0002700Y0100952D02*
X0010300Y0100952D01*
X0010300Y0101949D02*
X0002700Y0101949D01*
X0002700Y0101451D02*
X0015000Y0101451D01*
X0015000Y0101949D02*
X0015500Y0101949D01*
X0015500Y0102448D02*
X0015000Y0102448D01*
X0015000Y0102946D02*
X0015500Y0102946D01*
X0015500Y0103445D02*
X0015000Y0103445D01*
X0015000Y0103943D02*
X0015500Y0103943D01*
X0015500Y0104442D02*
X0015000Y0104442D01*
X0015000Y0104940D02*
X0015500Y0104940D01*
X0015500Y0105439D02*
X0015000Y0105439D01*
X0015000Y0105937D02*
X0015500Y0105937D01*
X0017563Y0105937D02*
X0019680Y0105937D01*
X0019181Y0105439D02*
X0018061Y0105439D01*
X0018560Y0104940D02*
X0018683Y0104940D01*
X0020178Y0106436D02*
X0002700Y0106436D01*
X0002700Y0106934D02*
X0020677Y0106934D01*
X0021175Y0107433D02*
X0002700Y0107433D01*
X0002700Y0107931D02*
X0021674Y0107931D01*
X0022172Y0108430D02*
X0002700Y0108430D01*
X0002700Y0108928D02*
X0022671Y0108928D01*
X0023169Y0109427D02*
X0002700Y0109427D01*
X0002700Y0109925D02*
X0023668Y0109925D01*
X0024166Y0110424D02*
X0002700Y0110424D01*
X0002700Y0110922D02*
X0024665Y0110922D01*
X0025163Y0111421D02*
X0002700Y0111421D01*
X0002700Y0111920D02*
X0025662Y0111920D01*
X0026160Y0112418D02*
X0002700Y0112418D01*
X0002700Y0112917D02*
X0026300Y0112917D01*
X0026300Y0113415D02*
X0002700Y0113415D01*
X0002700Y0113914D02*
X0026300Y0113914D01*
X0026300Y0114412D02*
X0002700Y0114412D01*
X0002700Y0114911D02*
X0026300Y0114911D01*
X0026300Y0115409D02*
X0002700Y0115409D01*
X0002700Y0115908D02*
X0026300Y0115908D01*
X0026300Y0116406D02*
X0002700Y0116406D01*
X0002700Y0116905D02*
X0026300Y0116905D01*
X0026300Y0117403D02*
X0002700Y0117403D01*
X0002700Y0117902D02*
X0026300Y0117902D01*
X0026300Y0118400D02*
X0002700Y0118400D01*
X0002700Y0118899D02*
X0026300Y0118899D01*
X0026300Y0119397D02*
X0002700Y0119397D01*
X0002700Y0119896D02*
X0026300Y0119896D01*
X0026300Y0120394D02*
X0002700Y0120394D01*
X0002700Y0120893D02*
X0026300Y0120893D01*
X0026300Y0121391D02*
X0002700Y0121391D01*
X0002700Y0121890D02*
X0026300Y0121890D01*
X0026300Y0122388D02*
X0002700Y0122388D01*
X0002700Y0122887D02*
X0026300Y0122887D01*
X0026300Y0123385D02*
X0002700Y0123385D01*
X0002700Y0123884D02*
X0026300Y0123884D01*
X0026300Y0124382D02*
X0002700Y0124382D01*
X0002700Y0124881D02*
X0026300Y0124881D01*
X0026622Y0125379D02*
X0002700Y0125379D01*
X0002700Y0125878D02*
X0027120Y0125878D01*
X0027619Y0126376D02*
X0002700Y0126376D01*
X0002700Y0126875D02*
X0028117Y0126875D01*
X0028616Y0127373D02*
X0002700Y0127373D01*
X0002700Y0127872D02*
X0029114Y0127872D01*
X0029613Y0128370D02*
X0002700Y0128370D01*
X0002700Y0128869D02*
X0030111Y0128869D01*
X0030610Y0129367D02*
X0002700Y0129367D01*
X0002700Y0129866D02*
X0031108Y0129866D01*
X0031607Y0130364D02*
X0002700Y0130364D01*
X0002700Y0130863D02*
X0032105Y0130863D01*
X0032604Y0131361D02*
X0002700Y0131361D01*
X0002700Y0131860D02*
X0033102Y0131860D01*
X0033601Y0132358D02*
X0002700Y0132358D01*
X0002700Y0132857D02*
X0034099Y0132857D01*
X0034598Y0133355D02*
X0002700Y0133355D01*
X0002700Y0133854D02*
X0035096Y0133854D01*
X0035595Y0134353D02*
X0002700Y0134353D01*
X0002700Y0134851D02*
X0036093Y0134851D01*
X0036592Y0135350D02*
X0002700Y0135350D01*
X0002700Y0135848D02*
X0037090Y0135848D01*
X0037589Y0136347D02*
X0002700Y0136347D01*
X0002700Y0136845D02*
X0038087Y0136845D01*
X0038586Y0137344D02*
X0002700Y0137344D01*
X0002700Y0137842D02*
X0039084Y0137842D01*
X0039583Y0138341D02*
X0002700Y0138341D01*
X0002700Y0138839D02*
X0040081Y0138839D01*
X0040580Y0139338D02*
X0002700Y0139338D01*
X0002700Y0139836D02*
X0041078Y0139836D01*
X0041577Y0140335D02*
X0002700Y0140335D01*
X0002700Y0140833D02*
X0042075Y0140833D01*
X0042574Y0141332D02*
X0002700Y0141332D01*
X0002700Y0141830D02*
X0043072Y0141830D01*
X0043571Y0142329D02*
X0002700Y0142329D01*
X0002700Y0142827D02*
X0044070Y0142827D01*
X0044568Y0143326D02*
X0002700Y0143326D01*
X0002700Y0143824D02*
X0045067Y0143824D01*
X0045565Y0144323D02*
X0002700Y0144323D01*
X0002700Y0144821D02*
X0046064Y0144821D01*
X0046562Y0145320D02*
X0002700Y0145320D01*
X0002700Y0145818D02*
X0047061Y0145818D01*
X0047559Y0146317D02*
X0002700Y0146317D01*
X0002700Y0146815D02*
X0048058Y0146815D01*
X0048556Y0147314D02*
X0002700Y0147314D01*
X0002700Y0147812D02*
X0049055Y0147812D01*
X0049553Y0148311D02*
X0002700Y0148311D01*
X0002700Y0148809D02*
X0249800Y0148809D01*
X0249800Y0148311D02*
X0129947Y0148311D01*
X0130445Y0147812D02*
X0249800Y0147812D01*
X0249800Y0147314D02*
X0130944Y0147314D01*
X0136419Y0138839D02*
X0143125Y0138839D01*
X0144097Y0138341D02*
X0136917Y0138341D01*
X0105855Y0117403D02*
X0170035Y0117403D01*
X0169537Y0116905D02*
X0106353Y0116905D01*
X0106852Y0116406D02*
X0169038Y0116406D01*
X0168540Y0115908D02*
X0107350Y0115908D01*
X0107849Y0115409D02*
X0168041Y0115409D01*
X0167543Y0114911D02*
X0108347Y0114911D01*
X0105356Y0117902D02*
X0170534Y0117902D01*
X0171032Y0118400D02*
X0104858Y0118400D01*
X0099359Y0118899D02*
X0171531Y0118899D01*
X0172029Y0119397D02*
X0098861Y0119397D01*
X0098362Y0119896D02*
X0172528Y0119896D01*
X0173026Y0120394D02*
X0097863Y0120394D01*
X0092339Y0117403D02*
X0045700Y0117403D01*
X0045700Y0116905D02*
X0092838Y0116905D01*
X0093336Y0116406D02*
X0045700Y0116406D01*
X0045700Y0115908D02*
X0093835Y0115908D01*
X0094333Y0115409D02*
X0045700Y0115409D01*
X0045700Y0114911D02*
X0094832Y0114911D01*
X0095330Y0114412D02*
X0045700Y0114412D01*
X0045700Y0113914D02*
X0095829Y0113914D01*
X0095800Y0113942D02*
X0095800Y0113942D01*
X0096942Y0112800D01*
X0098604Y0112800D01*
X0098213Y0111854D01*
X0098213Y0110646D01*
X0098675Y0109529D01*
X0099504Y0108700D01*
X0075442Y0108700D01*
X0074300Y0107558D01*
X0071942Y0105200D01*
X0054663Y0105200D01*
X0054287Y0105651D01*
X0054287Y0106854D01*
X0053825Y0107971D01*
X0052971Y0108825D01*
X0051854Y0109287D01*
X0050646Y0109287D01*
X0049529Y0108825D01*
X0048675Y0107971D01*
X0048269Y0106989D01*
X0045700Y0109558D01*
X0045700Y0130145D01*
X0046325Y0130770D01*
X0046787Y0131886D01*
X0046787Y0133094D01*
X0046325Y0134211D01*
X0045471Y0135065D01*
X0045013Y0135255D01*
X0052558Y0142800D01*
X0056104Y0142800D01*
X0055713Y0141854D01*
X0055713Y0140646D01*
X0056175Y0139529D01*
X0057029Y0138675D01*
X0058146Y0138213D01*
X0059354Y0138213D01*
X0060471Y0138675D01*
X0061325Y0139529D01*
X0061787Y0140646D01*
X0061787Y0140800D01*
X0068942Y0140800D01*
X0095800Y0113942D01*
X0096327Y0113415D02*
X0045700Y0113415D01*
X0045700Y0112917D02*
X0096826Y0112917D01*
X0098446Y0112418D02*
X0045700Y0112418D01*
X0045700Y0111920D02*
X0098240Y0111920D01*
X0098213Y0111421D02*
X0045700Y0111421D01*
X0045700Y0110922D02*
X0098213Y0110922D01*
X0098304Y0110424D02*
X0045700Y0110424D01*
X0045700Y0109925D02*
X0098511Y0109925D01*
X0098777Y0109427D02*
X0045831Y0109427D01*
X0046329Y0108928D02*
X0049779Y0108928D01*
X0049134Y0108430D02*
X0046828Y0108430D01*
X0047326Y0107931D02*
X0048659Y0107931D01*
X0048452Y0107433D02*
X0047825Y0107433D01*
X0043805Y0105937D02*
X0032695Y0105937D01*
X0032197Y0105439D02*
X0044303Y0105439D01*
X0044802Y0104940D02*
X0031698Y0104940D01*
X0031200Y0104442D02*
X0045300Y0104442D01*
X0045799Y0103943D02*
X0030701Y0103943D01*
X0030270Y0103513D02*
X0030400Y0103383D01*
X0030400Y0099117D01*
X0027533Y0096250D01*
X0030400Y0093383D01*
X0030400Y0093200D01*
X0033749Y0093200D01*
X0039020Y0098470D01*
X0039020Y0099354D01*
X0039482Y0100471D01*
X0040337Y0101325D01*
X0041453Y0101787D01*
X0042661Y0101787D01*
X0043778Y0101325D01*
X0043903Y0101200D01*
X0048542Y0101200D01*
X0041800Y0107942D01*
X0041800Y0130145D01*
X0041175Y0130770D01*
X0040985Y0131228D01*
X0033200Y0123442D01*
X0033200Y0117355D01*
X0033825Y0116730D01*
X0034287Y0115614D01*
X0034287Y0114406D01*
X0033825Y0113289D01*
X0033200Y0112664D01*
X0033200Y0106442D01*
X0030270Y0103513D01*
X0030338Y0103445D02*
X0046297Y0103445D01*
X0046796Y0102946D02*
X0030400Y0102946D01*
X0030400Y0102448D02*
X0047294Y0102448D01*
X0047793Y0101949D02*
X0030400Y0101949D01*
X0030400Y0101451D02*
X0040640Y0101451D01*
X0039964Y0100952D02*
X0030400Y0100952D01*
X0030400Y0100454D02*
X0039475Y0100454D01*
X0039269Y0099955D02*
X0030400Y0099955D01*
X0030400Y0099457D02*
X0039062Y0099457D01*
X0039020Y0098958D02*
X0030241Y0098958D01*
X0029743Y0098460D02*
X0039009Y0098460D01*
X0038511Y0097961D02*
X0029244Y0097961D01*
X0028746Y0097463D02*
X0038012Y0097463D01*
X0037514Y0096964D02*
X0028247Y0096964D01*
X0027749Y0096466D02*
X0037015Y0096466D01*
X0036517Y0095967D02*
X0027816Y0095967D01*
X0028315Y0095469D02*
X0036018Y0095469D01*
X0035520Y0094970D02*
X0028813Y0094970D01*
X0029312Y0094472D02*
X0035021Y0094472D01*
X0034522Y0093973D02*
X0029810Y0093973D01*
X0030309Y0093475D02*
X0034024Y0093475D01*
X0037545Y0091481D02*
X0058213Y0091481D01*
X0058213Y0090982D02*
X0037047Y0090982D01*
X0036548Y0090484D02*
X0058280Y0090484D01*
X0058486Y0089985D02*
X0036050Y0089985D01*
X0035551Y0089487D02*
X0058718Y0089487D01*
X0059216Y0088988D02*
X0030271Y0088988D01*
X0029773Y0088489D02*
X0059977Y0088489D01*
X0058264Y0091979D02*
X0038044Y0091979D01*
X0038542Y0092478D02*
X0058471Y0092478D01*
X0058681Y0092976D02*
X0039041Y0092976D01*
X0039539Y0093475D02*
X0059179Y0093475D01*
X0059887Y0093973D02*
X0040038Y0093973D01*
X0040536Y0094472D02*
X0061714Y0094472D01*
X0062212Y0094970D02*
X0041035Y0094970D01*
X0041533Y0095469D02*
X0062711Y0095469D01*
X0063209Y0095967D02*
X0043276Y0095967D01*
X0044068Y0096466D02*
X0063708Y0096466D01*
X0064206Y0096964D02*
X0044567Y0096964D01*
X0043474Y0101451D02*
X0048291Y0101451D01*
X0054464Y0105439D02*
X0072181Y0105439D01*
X0072680Y0105937D02*
X0054287Y0105937D01*
X0054287Y0106436D02*
X0073178Y0106436D01*
X0073677Y0106934D02*
X0054254Y0106934D01*
X0054048Y0107433D02*
X0074175Y0107433D01*
X0074674Y0107931D02*
X0053841Y0107931D01*
X0053366Y0108430D02*
X0075172Y0108430D01*
X0089847Y0119896D02*
X0045700Y0119896D01*
X0045700Y0120394D02*
X0089348Y0120394D01*
X0088850Y0120893D02*
X0045700Y0120893D01*
X0045700Y0121391D02*
X0088351Y0121391D01*
X0087853Y0121890D02*
X0045700Y0121890D01*
X0045700Y0122388D02*
X0087354Y0122388D01*
X0086856Y0122887D02*
X0045700Y0122887D01*
X0045700Y0123385D02*
X0086357Y0123385D01*
X0085859Y0123884D02*
X0045700Y0123884D01*
X0045700Y0124382D02*
X0085360Y0124382D01*
X0084861Y0124881D02*
X0045700Y0124881D01*
X0045700Y0125379D02*
X0084363Y0125379D01*
X0083864Y0125878D02*
X0045700Y0125878D01*
X0045700Y0126376D02*
X0083366Y0126376D01*
X0082867Y0126875D02*
X0045700Y0126875D01*
X0045700Y0127373D02*
X0082369Y0127373D01*
X0081870Y0127872D02*
X0045700Y0127872D01*
X0045700Y0128370D02*
X0081372Y0128370D01*
X0080873Y0128869D02*
X0045700Y0128869D01*
X0045700Y0129367D02*
X0080375Y0129367D01*
X0079876Y0129866D02*
X0045700Y0129866D01*
X0045920Y0130364D02*
X0079378Y0130364D01*
X0078879Y0130863D02*
X0046364Y0130863D01*
X0046570Y0131361D02*
X0078381Y0131361D01*
X0077882Y0131860D02*
X0046777Y0131860D01*
X0046787Y0132358D02*
X0077384Y0132358D01*
X0076885Y0132857D02*
X0046787Y0132857D01*
X0046679Y0133355D02*
X0076387Y0133355D01*
X0075888Y0133854D02*
X0046473Y0133854D01*
X0046183Y0134353D02*
X0075390Y0134353D01*
X0074891Y0134851D02*
X0045685Y0134851D01*
X0045107Y0135350D02*
X0074393Y0135350D01*
X0073894Y0135848D02*
X0045606Y0135848D01*
X0046104Y0136347D02*
X0073396Y0136347D01*
X0072897Y0136845D02*
X0046603Y0136845D01*
X0047101Y0137344D02*
X0072399Y0137344D01*
X0071900Y0137842D02*
X0047600Y0137842D01*
X0048098Y0138341D02*
X0057837Y0138341D01*
X0056865Y0138839D02*
X0048597Y0138839D01*
X0049095Y0139338D02*
X0056367Y0139338D01*
X0056048Y0139836D02*
X0049594Y0139836D01*
X0050092Y0140335D02*
X0055841Y0140335D01*
X0055713Y0140833D02*
X0050591Y0140833D01*
X0051089Y0141332D02*
X0055713Y0141332D01*
X0055713Y0141830D02*
X0051588Y0141830D01*
X0052086Y0142329D02*
X0055909Y0142329D01*
X0059663Y0138341D02*
X0071402Y0138341D01*
X0070903Y0138839D02*
X0060635Y0138839D01*
X0061133Y0139338D02*
X0070405Y0139338D01*
X0069906Y0139836D02*
X0061452Y0139836D01*
X0061659Y0140335D02*
X0069408Y0140335D01*
X0041800Y0129866D02*
X0039624Y0129866D01*
X0040122Y0130364D02*
X0041580Y0130364D01*
X0041136Y0130863D02*
X0040621Y0130863D01*
X0041800Y0129367D02*
X0039125Y0129367D01*
X0038627Y0128869D02*
X0041800Y0128869D01*
X0041800Y0128370D02*
X0038128Y0128370D01*
X0037630Y0127872D02*
X0041800Y0127872D01*
X0041800Y0127373D02*
X0037131Y0127373D01*
X0036633Y0126875D02*
X0041800Y0126875D01*
X0041800Y0126376D02*
X0036134Y0126376D01*
X0035636Y0125878D02*
X0041800Y0125878D01*
X0041800Y0125379D02*
X0035137Y0125379D01*
X0034639Y0124881D02*
X0041800Y0124881D01*
X0041800Y0124382D02*
X0034140Y0124382D01*
X0033641Y0123884D02*
X0041800Y0123884D01*
X0041800Y0123385D02*
X0033200Y0123385D01*
X0033200Y0122887D02*
X0041800Y0122887D01*
X0041800Y0122388D02*
X0033200Y0122388D01*
X0033200Y0121890D02*
X0041800Y0121890D01*
X0041800Y0121391D02*
X0033200Y0121391D01*
X0033200Y0120893D02*
X0041800Y0120893D01*
X0041800Y0120394D02*
X0033200Y0120394D01*
X0033200Y0119896D02*
X0041800Y0119896D01*
X0041800Y0119397D02*
X0033200Y0119397D01*
X0033200Y0118899D02*
X0041800Y0118899D01*
X0041800Y0118400D02*
X0033200Y0118400D01*
X0033200Y0117902D02*
X0041800Y0117902D01*
X0041800Y0117403D02*
X0033200Y0117403D01*
X0033651Y0116905D02*
X0041800Y0116905D01*
X0041800Y0116406D02*
X0033959Y0116406D01*
X0034166Y0115908D02*
X0041800Y0115908D01*
X0041800Y0115409D02*
X0034287Y0115409D01*
X0034287Y0114911D02*
X0041800Y0114911D01*
X0041800Y0114412D02*
X0034287Y0114412D01*
X0034084Y0113914D02*
X0041800Y0113914D01*
X0041800Y0113415D02*
X0033877Y0113415D01*
X0033452Y0112917D02*
X0041800Y0112917D01*
X0041800Y0112418D02*
X0033200Y0112418D01*
X0033200Y0111920D02*
X0041800Y0111920D01*
X0041800Y0111421D02*
X0033200Y0111421D01*
X0033200Y0110922D02*
X0041800Y0110922D01*
X0041800Y0110424D02*
X0033200Y0110424D01*
X0033200Y0109925D02*
X0041800Y0109925D01*
X0041800Y0109427D02*
X0033200Y0109427D01*
X0033200Y0108928D02*
X0041800Y0108928D01*
X0041800Y0108430D02*
X0033200Y0108430D01*
X0033200Y0107931D02*
X0041811Y0107931D01*
X0042309Y0107433D02*
X0033200Y0107433D01*
X0033200Y0106934D02*
X0042808Y0106934D01*
X0043306Y0106436D02*
X0033194Y0106436D01*
X0045700Y0117902D02*
X0091841Y0117902D01*
X0091342Y0118400D02*
X0045700Y0118400D01*
X0045700Y0118899D02*
X0090844Y0118899D01*
X0090345Y0119397D02*
X0045700Y0119397D01*
X0052721Y0108928D02*
X0099276Y0108928D01*
X0138403Y0085997D02*
X0140745Y0085997D01*
X0140247Y0086495D02*
X0138857Y0086495D01*
X0139063Y0086994D02*
X0139748Y0086994D01*
X0145273Y0089985D02*
X0154213Y0089985D01*
X0155028Y0078021D02*
X0155722Y0078021D01*
X0156220Y0077522D02*
X0154818Y0077522D01*
X0154319Y0077024D02*
X0156719Y0077024D01*
X0175189Y0067053D02*
X0120700Y0067053D01*
X0120700Y0066555D02*
X0175687Y0066555D01*
X0176186Y0066056D02*
X0120700Y0066056D01*
X0120700Y0065558D02*
X0176684Y0065558D01*
X0177183Y0065059D02*
X0120700Y0065059D01*
X0120700Y0064561D02*
X0177681Y0064561D01*
X0178180Y0064062D02*
X0120700Y0064062D01*
X0120700Y0063564D02*
X0178678Y0063564D01*
X0179177Y0063065D02*
X0120700Y0063065D01*
X0120700Y0062567D02*
X0179675Y0062567D01*
X0180174Y0062068D02*
X0120700Y0062068D01*
X0120700Y0061570D02*
X0180672Y0061570D01*
X0180713Y0061071D02*
X0120700Y0061071D01*
X0120700Y0060573D02*
X0180743Y0060573D01*
X0180949Y0060074D02*
X0120700Y0060074D01*
X0120700Y0059576D02*
X0181156Y0059576D01*
X0181627Y0059077D02*
X0120700Y0059077D01*
X0120700Y0058579D02*
X0181800Y0058579D01*
X0181800Y0058080D02*
X0120700Y0058080D01*
X0120700Y0057582D02*
X0181800Y0057582D01*
X0181800Y0057083D02*
X0120700Y0057083D01*
X0120700Y0056585D02*
X0181800Y0056585D01*
X0181800Y0056086D02*
X0120700Y0056086D01*
X0120700Y0055588D02*
X0181800Y0055588D01*
X0181800Y0055089D02*
X0120700Y0055089D01*
X0120700Y0054591D02*
X0181800Y0054591D01*
X0181800Y0054092D02*
X0120700Y0054092D01*
X0120702Y0053594D02*
X0181800Y0053594D01*
X0181800Y0053095D02*
X0121200Y0053095D01*
X0121480Y0052597D02*
X0181800Y0052597D01*
X0181800Y0052098D02*
X0121686Y0052098D01*
X0121787Y0051600D02*
X0181800Y0051600D01*
X0181800Y0051101D02*
X0121787Y0051101D01*
X0121769Y0050603D02*
X0181800Y0050603D01*
X0181800Y0050104D02*
X0121563Y0050104D01*
X0121357Y0049606D02*
X0181800Y0049606D01*
X0181800Y0049107D02*
X0120903Y0049107D01*
X0120700Y0048609D02*
X0181800Y0048609D01*
X0181800Y0048110D02*
X0120700Y0048110D01*
X0120700Y0047612D02*
X0181800Y0047612D01*
X0181800Y0047113D02*
X0120700Y0047113D01*
X0120700Y0046615D02*
X0181800Y0046615D01*
X0181800Y0046116D02*
X0120700Y0046116D01*
X0120700Y0045618D02*
X0181800Y0045618D01*
X0181800Y0045119D02*
X0120700Y0045119D01*
X0120700Y0044620D02*
X0181800Y0044620D01*
X0181800Y0044122D02*
X0120700Y0044122D01*
X0120700Y0043623D02*
X0181800Y0043623D01*
X0181800Y0043125D02*
X0120700Y0043125D01*
X0120700Y0042626D02*
X0182116Y0042626D01*
X0182614Y0042128D02*
X0120700Y0042128D01*
X0120700Y0041629D02*
X0183113Y0041629D01*
X0183611Y0041131D02*
X0120700Y0041131D01*
X0120700Y0040632D02*
X0184110Y0040632D01*
X0184608Y0040134D02*
X0120700Y0040134D01*
X0120700Y0039635D02*
X0185107Y0039635D01*
X0185605Y0039137D02*
X0120700Y0039137D01*
X0120700Y0038638D02*
X0186104Y0038638D01*
X0186602Y0038140D02*
X0120700Y0038140D01*
X0120700Y0037641D02*
X0187101Y0037641D01*
X0187599Y0037143D02*
X0120700Y0037143D01*
X0120700Y0036644D02*
X0188098Y0036644D01*
X0188596Y0036146D02*
X0120700Y0036146D01*
X0120700Y0035647D02*
X0189095Y0035647D01*
X0189594Y0035149D02*
X0120700Y0035149D01*
X0120700Y0034650D02*
X0190092Y0034650D01*
X0190591Y0034152D02*
X0120700Y0034152D01*
X0120700Y0033653D02*
X0191089Y0033653D01*
X0191588Y0033155D02*
X0120700Y0033155D01*
X0120700Y0032656D02*
X0192086Y0032656D01*
X0192585Y0032158D02*
X0120700Y0032158D01*
X0120700Y0031659D02*
X0193083Y0031659D01*
X0193582Y0031161D02*
X0120700Y0031161D01*
X0121133Y0030662D02*
X0194080Y0030662D01*
X0194579Y0030164D02*
X0121452Y0030164D01*
X0121659Y0029665D02*
X0195077Y0029665D01*
X0195576Y0029167D02*
X0121787Y0029167D01*
X0121787Y0028668D02*
X0196074Y0028668D01*
X0196573Y0028170D02*
X0121787Y0028170D01*
X0121591Y0027671D02*
X0197071Y0027671D01*
X0197570Y0027173D02*
X0121384Y0027173D01*
X0120970Y0026674D02*
X0198068Y0026674D01*
X0198567Y0026176D02*
X0120471Y0026176D01*
X0229261Y0084003D02*
X0232000Y0084003D01*
X0232000Y0084501D02*
X0229759Y0084501D01*
X0230258Y0085000D02*
X0232000Y0085000D01*
X0232000Y0085498D02*
X0230756Y0085498D01*
X0231255Y0085997D02*
X0232487Y0085997D01*
X0232985Y0086495D02*
X0231753Y0086495D01*
X0236000Y0082507D02*
X0236500Y0082507D01*
X0236500Y0082009D02*
X0236000Y0082009D01*
X0236000Y0081510D02*
X0236500Y0081510D01*
X0236500Y0081012D02*
X0236000Y0081012D01*
X0236000Y0080513D02*
X0236500Y0080513D01*
X0236500Y0080015D02*
X0236000Y0080015D01*
X0236000Y0079516D02*
X0236500Y0079516D01*
X0238831Y0097463D02*
X0239300Y0097463D01*
X0239281Y0097961D02*
X0238332Y0097961D01*
X0238783Y0098460D02*
X0193200Y0098460D01*
X0193200Y0098958D02*
X0238284Y0098958D01*
X0249800Y0108430D02*
X0193200Y0108430D01*
X0193200Y0108928D02*
X0249800Y0108928D01*
X0249800Y0149308D02*
X0002700Y0149308D01*
X0002700Y0149806D02*
X0249800Y0149806D01*
X0249800Y0150305D02*
X0002700Y0150305D01*
X0002700Y0150803D02*
X0249800Y0150803D01*
X0249800Y0151302D02*
X0002700Y0151302D01*
X0002700Y0151800D02*
X0249800Y0151800D01*
X0249800Y0152299D02*
X0002700Y0152299D01*
X0002700Y0152797D02*
X0249800Y0152797D01*
X0249800Y0153296D02*
X0002700Y0153296D01*
X0002700Y0153794D02*
X0249800Y0153794D01*
X0249800Y0154293D02*
X0002700Y0154293D01*
X0002700Y0154791D02*
X0249800Y0154791D01*
X0249800Y0155290D02*
X0002700Y0155290D01*
X0002700Y0155789D02*
X0249800Y0155789D01*
X0249800Y0156287D02*
X0002700Y0156287D01*
X0002700Y0156786D02*
X0249800Y0156786D01*
X0249800Y0157284D02*
X0002700Y0157284D01*
X0002700Y0157783D02*
X0249800Y0157783D01*
X0249800Y0158281D02*
X0002700Y0158281D01*
X0002700Y0158780D02*
X0248292Y0158780D01*
X0198440Y0159278D02*
X0002700Y0159278D01*
X0002700Y0105937D02*
X0012937Y0105937D01*
X0012439Y0105439D02*
X0002700Y0105439D01*
X0002700Y0104940D02*
X0011940Y0104940D01*
X0011441Y0104442D02*
X0002700Y0104442D01*
X0002700Y0103943D02*
X0010943Y0103943D01*
X0010444Y0103445D02*
X0002700Y0103445D01*
X0002700Y0102946D02*
X0010300Y0102946D01*
X0010300Y0102448D02*
X0002700Y0102448D01*
X0002700Y0010223D02*
X0249800Y0010223D01*
X0249800Y0009725D02*
X0002700Y0009725D01*
X0002700Y0009226D02*
X0249800Y0009226D01*
X0249800Y0008728D02*
X0002700Y0008728D01*
X0002700Y0008229D02*
X0249800Y0008229D01*
X0249800Y0007731D02*
X0002700Y0007731D01*
X0002700Y0007232D02*
X0249800Y0007232D01*
X0249800Y0006734D02*
X0002700Y0006734D01*
X0002700Y0006235D02*
X0249800Y0006235D01*
X0249800Y0005737D02*
X0002700Y0005737D01*
X0002700Y0005238D02*
X0249800Y0005238D01*
X0249800Y0004740D02*
X0002700Y0004740D01*
X0002700Y0004241D02*
X0249800Y0004241D01*
X0249800Y0003743D02*
X0002700Y0003743D01*
X0002700Y0003244D02*
X0249800Y0003244D01*
X0249800Y0002746D02*
X0002700Y0002746D01*
M02*
