%
M48
M72
T01C0.01600
T02C0.04000
%
T01
X61250Y46250
X76250Y46250
X93750Y56250
X76250Y68750
X88750Y83750
X113750Y68750
X136250Y67750
X152250Y79250
X152250Y84203
X156250Y87726
X161250Y88750
X168140Y85860
X165750Y78297
X170750Y78297
X163750Y73750
X183750Y61250
X167250Y46250
X153750Y46250
X118750Y51250
X113750Y43750
X118750Y28750
X188750Y23750
X206250Y58750
X201250Y101250
X191250Y120250
X167750Y123750
X148750Y123750
X128750Y136250
X116250Y136250
X145010Y141250
X156250Y141250
X101250Y111250
X116250Y101250
X118750Y91250
X136250Y88140
X156750Y103750
X226250Y143533
X86250Y131250
X73750Y118750
X51250Y106250
X42057Y98750
X38750Y106250
X31250Y115010
X43750Y132490
X58750Y141250
X78750Y101250
X61250Y91250
X38750Y73750
T02
X25250Y71250
X15250Y71250
X15250Y61250
X25250Y61250
X25250Y81250
X15250Y81250
X15250Y91250
X25250Y91250
X25250Y101250
X15250Y101250
X211250Y16250
X221250Y16250
X236250Y83750
X236250Y93750
X236250Y103750
X236250Y113750
M30
