G75*
%MOIN*%
%OFA0B0*%
%FSLAX25Y25*%
%IPPOS*%
%LPD*%
%AMOC8*
5,1,8,0,0,1.08239X$1,22.5*
%
%ADD10R,0.06706X0.05918*%
%ADD11R,0.05918X0.06706*%
%ADD12R,0.07898X0.07099*%
%ADD13R,0.05524X0.05524*%
%ADD14R,0.07099X0.04146*%
%ADD15OC8,0.06800*%
%ADD16R,0.07800X0.20800*%
%ADD17R,0.07099X0.01981*%
%ADD18R,0.01981X0.07099*%
%ADD19R,0.03792X0.11824*%
%ADD20R,0.09461X0.03162*%
%ADD21C,0.08200*%
%ADD22R,0.06312X0.04737*%
%ADD23R,0.04737X0.06312*%
%ADD24R,0.03162X0.09461*%
%ADD25OC8,0.08200*%
%ADD26C,0.03975*%
D10*
X0088750Y0091260D03*
X0088750Y0098740D03*
X0078750Y0125010D03*
X0078750Y0132490D03*
X0101250Y0132490D03*
X0101250Y0125010D03*
X0043750Y0124990D03*
X0043750Y0117510D03*
X0033750Y0125010D03*
X0033750Y0132490D03*
X0161250Y0134990D03*
X0161250Y0127510D03*
X0161250Y0117490D03*
X0171250Y0117490D03*
X0171250Y0110010D03*
X0161250Y0110010D03*
X0190750Y0094990D03*
X0190750Y0087510D03*
X0218750Y0069990D03*
X0218750Y0062510D03*
X0218750Y0054990D03*
X0218750Y0047510D03*
X0176250Y0027490D03*
X0176250Y0020010D03*
X0161250Y0020010D03*
X0161250Y0027490D03*
X0146250Y0027490D03*
X0146250Y0020010D03*
D11*
X0145010Y0053750D03*
X0152490Y0053750D03*
X0129990Y0068750D03*
X0122510Y0068750D03*
X0077490Y0091250D03*
X0070010Y0091250D03*
X0072490Y0101250D03*
X0065010Y0101250D03*
X0080010Y0111250D03*
X0087490Y0111250D03*
X0112510Y0123750D03*
X0119990Y0123750D03*
X0145010Y0133750D03*
X0152490Y0133750D03*
X0134990Y0106250D03*
X0127510Y0106250D03*
X0069990Y0078750D03*
X0062510Y0078750D03*
X0052490Y0078750D03*
X0045010Y0078750D03*
X0045010Y0068750D03*
X0052490Y0068750D03*
X0062510Y0068750D03*
X0069990Y0068750D03*
D12*
X0088750Y0065652D03*
X0088750Y0076848D03*
D13*
X0146250Y0042884D03*
X0146250Y0034616D03*
X0161250Y0034616D03*
X0161250Y0042884D03*
X0176250Y0042884D03*
X0176250Y0034616D03*
D14*
X0042057Y0046250D03*
X0055443Y0046250D03*
X0055443Y0091250D03*
X0042057Y0091250D03*
D15*
X0236250Y0093750D03*
X0236250Y0083750D03*
X0236250Y0103750D03*
X0236250Y0113750D03*
D16*
X0201250Y0077750D03*
X0201250Y0039750D03*
D17*
X0177392Y0070423D03*
X0177392Y0072392D03*
X0177392Y0074360D03*
X0177392Y0076329D03*
X0177392Y0078297D03*
X0177392Y0080266D03*
X0177392Y0082234D03*
X0177392Y0084203D03*
X0177392Y0086171D03*
X0177392Y0088140D03*
X0177392Y0090108D03*
X0177392Y0092077D03*
X0145108Y0092077D03*
X0145108Y0090108D03*
X0145108Y0088140D03*
X0145108Y0086171D03*
X0145108Y0084203D03*
X0145108Y0082234D03*
X0145108Y0080266D03*
X0145108Y0078297D03*
X0145108Y0076329D03*
X0145108Y0074360D03*
X0145108Y0072392D03*
X0145108Y0070423D03*
D18*
X0150423Y0065108D03*
X0152392Y0065108D03*
X0154360Y0065108D03*
X0156329Y0065108D03*
X0158297Y0065108D03*
X0160266Y0065108D03*
X0162234Y0065108D03*
X0164203Y0065108D03*
X0166171Y0065108D03*
X0168140Y0065108D03*
X0170108Y0065108D03*
X0172077Y0065108D03*
X0172077Y0097392D03*
X0170108Y0097392D03*
X0168140Y0097392D03*
X0166171Y0097392D03*
X0164203Y0097392D03*
X0162234Y0097392D03*
X0160266Y0097392D03*
X0158297Y0097392D03*
X0156329Y0097392D03*
X0154360Y0097392D03*
X0152392Y0097392D03*
X0150423Y0097392D03*
D19*
X0186250Y0128967D03*
X0191250Y0128967D03*
X0196250Y0128967D03*
X0201250Y0128967D03*
X0206250Y0128967D03*
X0206250Y0143533D03*
X0201250Y0143533D03*
X0196250Y0143533D03*
X0191250Y0143533D03*
X0186250Y0143533D03*
D20*
X0126486Y0096250D03*
X0126486Y0091250D03*
X0126486Y0086250D03*
X0126486Y0081250D03*
X0106014Y0081250D03*
X0106014Y0086250D03*
X0106014Y0091250D03*
X0106014Y0096250D03*
X0106014Y0056250D03*
X0106014Y0051250D03*
X0106014Y0046250D03*
X0106014Y0041250D03*
X0126486Y0041250D03*
X0126486Y0046250D03*
X0126486Y0051250D03*
X0126486Y0056250D03*
D21*
X0211250Y0016250D03*
X0221250Y0016250D03*
D22*
X0133081Y0025010D03*
X0124419Y0028750D03*
X0133081Y0032490D03*
X0096919Y0107510D03*
X0105581Y0111250D03*
X0096919Y0114990D03*
X0126919Y0118750D03*
X0135581Y0115010D03*
X0135581Y0122490D03*
D23*
X0148750Y0118081D03*
X0145010Y0109419D03*
X0152490Y0109419D03*
X0119990Y0115581D03*
X0112510Y0115581D03*
X0116250Y0106919D03*
D24*
X0068750Y0113514D03*
X0063750Y0113514D03*
X0058750Y0113514D03*
X0053750Y0113514D03*
X0053750Y0133986D03*
X0058750Y0133986D03*
X0063750Y0133986D03*
X0068750Y0133986D03*
D25*
X0025250Y0101250D03*
X0015250Y0101250D03*
X0015250Y0091250D03*
X0025250Y0091250D03*
X0025250Y0081250D03*
X0015250Y0081250D03*
X0015250Y0071250D03*
X0025250Y0071250D03*
X0025250Y0061250D03*
X0015250Y0061250D03*
D26*
X0038750Y0073750D03*
X0061250Y0091250D03*
X0078750Y0101250D03*
X0101250Y0111250D03*
X0116250Y0101250D03*
X0118750Y0091250D03*
X0136250Y0088140D03*
X0152250Y0084203D03*
X0156250Y0087726D03*
X0161250Y0088750D03*
X0168140Y0085860D03*
X0165750Y0078297D03*
X0170750Y0078297D03*
X0163750Y0073750D03*
X0152250Y0079250D03*
X0136250Y0067750D03*
X0113750Y0068750D03*
X0093750Y0056250D03*
X0076250Y0046250D03*
X0061250Y0046250D03*
X0076250Y0068750D03*
X0088750Y0083750D03*
X0051250Y0106250D03*
X0042057Y0098750D03*
X0038750Y0106250D03*
X0031250Y0115010D03*
X0043750Y0132490D03*
X0058750Y0141250D03*
X0086250Y0131250D03*
X0073750Y0118750D03*
X0116250Y0136250D03*
X0128750Y0136250D03*
X0145010Y0141250D03*
X0156250Y0141250D03*
X0148750Y0123750D03*
X0167750Y0123750D03*
X0191250Y0120250D03*
X0201250Y0101250D03*
X0156750Y0103750D03*
X0183750Y0061250D03*
X0167250Y0046250D03*
X0153750Y0046250D03*
X0118750Y0051250D03*
X0113750Y0043750D03*
X0118750Y0028750D03*
X0188750Y0023750D03*
X0206250Y0058750D03*
X0226250Y0143533D03*
M02*
