G75*
%MOIN*%
%OFA0B0*%
%FSLAX25Y25*%
%IPPOS*%
%LPD*%
%AMOC8*
5,1,8,0,0,1.08239X$1,22.5*
%
%ADD10C,0.00000*%
%ADD11C,0.00600*%
%ADD12C,0.01000*%
%ADD13C,0.00800*%
%ADD14C,0.00900*%
%ADD15R,0.00787X0.00787*%
%ADD16C,0.00500*%
%ADD17C,0.00200*%
%ADD18C,0.00400*%
%ADD19R,0.02000X0.02000*%
D10*
X0001250Y0001250D02*
X0001250Y0161250D01*
X0251250Y0161250D01*
X0251250Y0001250D01*
X0001250Y0001250D01*
D11*
X0046184Y0051550D02*
X0047885Y0051550D01*
X0048452Y0052117D01*
X0048452Y0054386D01*
X0047885Y0054953D01*
X0046184Y0054953D01*
X0046184Y0051550D01*
X0049867Y0053251D02*
X0052135Y0053251D01*
X0051568Y0051550D02*
X0051568Y0054953D01*
X0049867Y0053251D01*
X0049952Y0060050D02*
X0047684Y0060050D01*
X0048818Y0060050D02*
X0048818Y0063453D01*
X0047684Y0062319D01*
X0046269Y0062886D02*
X0045702Y0063453D01*
X0044568Y0063453D01*
X0044001Y0062886D01*
X0044001Y0060617D01*
X0044568Y0060050D01*
X0045702Y0060050D01*
X0046269Y0060617D01*
X0051367Y0060050D02*
X0053635Y0060050D01*
X0052501Y0060050D02*
X0052501Y0063453D01*
X0051367Y0062319D01*
X0061701Y0063453D02*
X0061701Y0060050D01*
X0061701Y0061184D02*
X0063402Y0061184D01*
X0063969Y0061751D01*
X0063969Y0062886D01*
X0063402Y0063453D01*
X0061701Y0063453D01*
X0065384Y0062319D02*
X0066518Y0063453D01*
X0066518Y0060050D01*
X0065384Y0060050D02*
X0067652Y0060050D01*
X0069067Y0060050D02*
X0071335Y0062319D01*
X0071335Y0062886D01*
X0070768Y0063453D01*
X0069634Y0063453D01*
X0069067Y0062886D01*
X0069067Y0060050D02*
X0071335Y0060050D01*
X0063969Y0060050D02*
X0062835Y0061184D01*
X0080047Y0066401D02*
X0080047Y0068102D01*
X0080614Y0068669D01*
X0081749Y0068669D01*
X0082316Y0068102D01*
X0082316Y0066401D01*
X0082316Y0067535D02*
X0083450Y0068669D01*
X0083450Y0070084D02*
X0083450Y0072352D01*
X0083450Y0071218D02*
X0080047Y0071218D01*
X0081181Y0070084D01*
X0080614Y0073767D02*
X0080047Y0074334D01*
X0080047Y0075468D01*
X0080614Y0076035D01*
X0081181Y0076035D01*
X0081749Y0075468D01*
X0082316Y0076035D01*
X0082883Y0076035D01*
X0083450Y0075468D01*
X0083450Y0074334D01*
X0082883Y0073767D01*
X0081749Y0074901D02*
X0081749Y0075468D01*
X0081502Y0082750D02*
X0079233Y0082750D01*
X0080367Y0082750D02*
X0080367Y0086153D01*
X0079233Y0085019D01*
X0077819Y0085586D02*
X0077819Y0084451D01*
X0077251Y0083884D01*
X0075550Y0083884D01*
X0075550Y0082750D02*
X0075550Y0086153D01*
X0077251Y0086153D01*
X0077819Y0085586D01*
X0076684Y0083884D02*
X0077819Y0082750D01*
X0082916Y0083317D02*
X0082916Y0085586D01*
X0083483Y0086153D01*
X0084618Y0086153D01*
X0085185Y0085586D01*
X0082916Y0083317D01*
X0083483Y0082750D01*
X0084618Y0082750D01*
X0085185Y0083317D01*
X0085185Y0085586D01*
X0094147Y0090618D02*
X0094147Y0091752D01*
X0094714Y0092319D01*
X0095281Y0093734D02*
X0094147Y0094868D01*
X0097550Y0094868D01*
X0097550Y0093734D02*
X0097550Y0096002D01*
X0097550Y0097417D02*
X0095281Y0099685D01*
X0094714Y0099685D01*
X0094147Y0099118D01*
X0094147Y0097984D01*
X0094714Y0097417D01*
X0097550Y0097417D02*
X0097550Y0099685D01*
X0091957Y0103717D02*
X0091957Y0104284D01*
X0091390Y0104851D01*
X0089689Y0104851D01*
X0089689Y0103717D01*
X0090256Y0103150D01*
X0091390Y0103150D01*
X0091957Y0103717D01*
X0089689Y0104851D02*
X0090823Y0105986D01*
X0091957Y0106553D01*
X0088274Y0105986D02*
X0087707Y0106553D01*
X0086573Y0106553D01*
X0086005Y0105986D01*
X0086005Y0103717D01*
X0086573Y0103150D01*
X0087707Y0103150D01*
X0088274Y0103717D01*
X0084684Y0103150D02*
X0083550Y0103150D01*
X0084117Y0103150D02*
X0084117Y0106553D01*
X0083550Y0106553D02*
X0084684Y0106553D01*
X0084318Y0116550D02*
X0084318Y0119953D01*
X0083184Y0118819D01*
X0081769Y0119386D02*
X0081769Y0118251D01*
X0081202Y0117684D01*
X0079501Y0117684D01*
X0080635Y0117684D02*
X0081769Y0116550D01*
X0083184Y0116550D02*
X0085452Y0116550D01*
X0086867Y0118251D02*
X0089135Y0118251D01*
X0088568Y0116550D02*
X0088568Y0119953D01*
X0086867Y0118251D01*
X0081769Y0119386D02*
X0081202Y0119953D01*
X0079501Y0119953D01*
X0079501Y0116550D01*
X0092547Y0124117D02*
X0093114Y0123550D01*
X0095383Y0123550D01*
X0095950Y0124117D01*
X0095950Y0125251D01*
X0095383Y0125819D01*
X0095950Y0127233D02*
X0095950Y0129502D01*
X0095950Y0128367D02*
X0092547Y0128367D01*
X0093681Y0127233D01*
X0093114Y0125819D02*
X0092547Y0125251D01*
X0092547Y0124117D01*
X0093114Y0130916D02*
X0092547Y0131483D01*
X0092547Y0132618D01*
X0093114Y0133185D01*
X0093681Y0133185D01*
X0094249Y0132618D01*
X0094816Y0133185D01*
X0095383Y0133185D01*
X0095950Y0132618D01*
X0095950Y0131483D01*
X0095383Y0130916D01*
X0094249Y0132051D02*
X0094249Y0132618D01*
X0080450Y0137550D02*
X0077047Y0137550D01*
X0077047Y0139251D01*
X0077614Y0139819D01*
X0078749Y0139819D01*
X0079316Y0139251D01*
X0079316Y0137550D01*
X0079316Y0138684D02*
X0080450Y0139819D01*
X0079883Y0141233D02*
X0080450Y0141800D01*
X0080450Y0142935D01*
X0079883Y0143502D01*
X0079316Y0143502D01*
X0078749Y0142935D01*
X0078749Y0141233D01*
X0079883Y0141233D01*
X0078749Y0141233D02*
X0077614Y0142367D01*
X0077047Y0143502D01*
X0050457Y0140251D02*
X0048189Y0140251D01*
X0049890Y0141953D01*
X0049890Y0138550D01*
X0046774Y0139117D02*
X0046207Y0138550D01*
X0045073Y0138550D01*
X0044505Y0139117D01*
X0044505Y0141386D01*
X0045073Y0141953D01*
X0046207Y0141953D01*
X0046774Y0141386D01*
X0043184Y0141953D02*
X0042050Y0141953D01*
X0042617Y0141953D02*
X0042617Y0138550D01*
X0042050Y0138550D02*
X0043184Y0138550D01*
X0028450Y0129367D02*
X0027883Y0129367D01*
X0025614Y0131635D01*
X0025047Y0131635D01*
X0025047Y0129367D01*
X0025614Y0127952D02*
X0025047Y0127385D01*
X0025047Y0125684D01*
X0028450Y0125684D01*
X0027316Y0125684D02*
X0027316Y0127385D01*
X0026749Y0127952D01*
X0025614Y0127952D01*
X0027316Y0126818D02*
X0028450Y0127952D01*
X0040050Y0112953D02*
X0041751Y0112953D01*
X0042319Y0112386D01*
X0042319Y0111251D01*
X0041751Y0110684D01*
X0040050Y0110684D01*
X0040050Y0109550D02*
X0040050Y0112953D01*
X0041184Y0110684D02*
X0042319Y0109550D01*
X0043733Y0110117D02*
X0044300Y0109550D01*
X0045435Y0109550D01*
X0046002Y0110117D01*
X0046002Y0112386D01*
X0045435Y0112953D01*
X0044300Y0112953D01*
X0043733Y0112386D01*
X0043733Y0111819D01*
X0044300Y0111251D01*
X0046002Y0111251D01*
X0045950Y0099453D02*
X0047651Y0099453D01*
X0048219Y0098886D01*
X0048219Y0096617D01*
X0047651Y0096050D01*
X0045950Y0096050D01*
X0045950Y0099453D01*
X0049633Y0099453D02*
X0049633Y0097751D01*
X0050767Y0098319D01*
X0051335Y0098319D01*
X0051902Y0097751D01*
X0051902Y0096617D01*
X0051335Y0096050D01*
X0050200Y0096050D01*
X0049633Y0096617D01*
X0049633Y0099453D02*
X0051902Y0099453D01*
X0057101Y0087453D02*
X0058802Y0087453D01*
X0059369Y0086886D01*
X0059369Y0085751D01*
X0058802Y0085184D01*
X0057101Y0085184D01*
X0058235Y0085184D02*
X0059369Y0084050D01*
X0060784Y0084050D02*
X0063052Y0084050D01*
X0061918Y0084050D02*
X0061918Y0087453D01*
X0060784Y0086319D01*
X0064467Y0086319D02*
X0065601Y0087453D01*
X0065601Y0084050D01*
X0064467Y0084050D02*
X0066735Y0084050D01*
X0057101Y0084050D02*
X0057101Y0087453D01*
X0043135Y0086486D02*
X0043135Y0084217D01*
X0042568Y0083650D01*
X0041434Y0083650D01*
X0040867Y0084217D01*
X0043135Y0086486D01*
X0042568Y0087053D01*
X0041434Y0087053D01*
X0040867Y0086486D01*
X0040867Y0084217D01*
X0039452Y0083650D02*
X0037184Y0083650D01*
X0038318Y0083650D02*
X0038318Y0087053D01*
X0037184Y0085919D01*
X0035769Y0086486D02*
X0035202Y0087053D01*
X0034068Y0087053D01*
X0033501Y0086486D01*
X0033501Y0084217D01*
X0034068Y0083650D01*
X0035202Y0083650D01*
X0035769Y0084217D01*
X0030250Y0083750D02*
X0030250Y0078750D01*
X0027750Y0076250D01*
X0012750Y0076250D01*
X0010250Y0073750D01*
X0010250Y0068750D01*
X0012750Y0066250D01*
X0010250Y0063750D01*
X0010250Y0058750D01*
X0012750Y0056250D01*
X0027750Y0056250D01*
X0030250Y0058750D01*
X0030250Y0063750D01*
X0027750Y0066250D01*
X0012750Y0066250D01*
X0027750Y0066250D02*
X0030250Y0068750D01*
X0030250Y0073750D01*
X0027750Y0076250D01*
X0030250Y0083750D02*
X0027750Y0086250D01*
X0012750Y0086250D01*
X0010250Y0083750D01*
X0010250Y0078750D01*
X0012750Y0076250D01*
X0012750Y0086250D02*
X0010250Y0088750D01*
X0010250Y0093750D01*
X0012750Y0096250D01*
X0027750Y0096250D01*
X0030250Y0093750D01*
X0030250Y0088750D01*
X0027750Y0086250D01*
X0027750Y0096250D02*
X0030250Y0098750D01*
X0030250Y0103750D01*
X0027750Y0106250D01*
X0012750Y0106250D01*
X0010250Y0103750D01*
X0010250Y0098750D01*
X0012750Y0096250D01*
X0080047Y0066401D02*
X0083450Y0066401D01*
X0111728Y0073550D02*
X0112863Y0073550D01*
X0112295Y0073550D02*
X0112295Y0076953D01*
X0111728Y0076953D02*
X0112863Y0076953D01*
X0114184Y0076386D02*
X0114184Y0074117D01*
X0114751Y0073550D01*
X0115885Y0073550D01*
X0116452Y0074117D01*
X0117867Y0074117D02*
X0118434Y0073550D01*
X0119568Y0073550D01*
X0120135Y0074117D01*
X0120135Y0074684D01*
X0119568Y0075251D01*
X0119001Y0075251D01*
X0119568Y0075251D02*
X0120135Y0075819D01*
X0120135Y0076386D01*
X0119568Y0076953D01*
X0118434Y0076953D01*
X0117867Y0076386D01*
X0116452Y0076386D02*
X0115885Y0076953D01*
X0114751Y0076953D01*
X0114184Y0076386D01*
X0097550Y0090618D02*
X0097550Y0091752D01*
X0096983Y0092319D01*
X0097550Y0090618D02*
X0096983Y0090051D01*
X0094714Y0090051D01*
X0094147Y0090618D01*
X0106684Y0100617D02*
X0107251Y0100050D01*
X0108385Y0100050D01*
X0108952Y0100617D01*
X0108952Y0102886D01*
X0108385Y0103453D01*
X0107251Y0103453D01*
X0106684Y0102886D01*
X0106684Y0100617D01*
X0107818Y0101184D02*
X0108952Y0100050D01*
X0110367Y0100617D02*
X0110934Y0100050D01*
X0112068Y0100050D01*
X0112635Y0100617D01*
X0112635Y0101184D01*
X0112068Y0101751D01*
X0111501Y0101751D01*
X0112068Y0101751D02*
X0112635Y0102319D01*
X0112635Y0102886D01*
X0112068Y0103453D01*
X0110934Y0103453D01*
X0110367Y0102886D01*
X0132484Y0100486D02*
X0132484Y0098217D01*
X0133051Y0097650D01*
X0134185Y0097650D01*
X0134752Y0098217D01*
X0136167Y0098217D02*
X0136734Y0097650D01*
X0137868Y0097650D01*
X0138435Y0098217D01*
X0138435Y0098784D01*
X0137868Y0099351D01*
X0136167Y0099351D01*
X0136167Y0098217D01*
X0136167Y0099351D02*
X0137301Y0100486D01*
X0138435Y0101053D01*
X0134752Y0100486D02*
X0134185Y0101053D01*
X0133051Y0101053D01*
X0132484Y0100486D01*
X0153047Y0118684D02*
X0153047Y0120385D01*
X0153614Y0120952D01*
X0154749Y0120952D01*
X0155316Y0120385D01*
X0155316Y0118684D01*
X0155316Y0119818D02*
X0156450Y0120952D01*
X0155883Y0122367D02*
X0156450Y0122934D01*
X0156450Y0124068D01*
X0155883Y0124635D01*
X0154749Y0124635D01*
X0154181Y0124068D01*
X0154181Y0123501D01*
X0154749Y0122367D01*
X0153047Y0122367D01*
X0153047Y0124635D01*
X0153047Y0118684D02*
X0156450Y0118684D01*
X0141002Y0126550D02*
X0138733Y0126550D01*
X0139867Y0126550D02*
X0139867Y0129953D01*
X0138733Y0128819D01*
X0137319Y0129386D02*
X0137319Y0127117D01*
X0136751Y0126550D01*
X0135617Y0126550D01*
X0135050Y0127117D01*
X0135050Y0129386D01*
X0135617Y0129953D01*
X0136751Y0129953D01*
X0137319Y0129386D01*
X0136184Y0127684D02*
X0137319Y0126550D01*
X0131002Y0126550D02*
X0128733Y0126550D01*
X0131002Y0128819D01*
X0131002Y0129386D01*
X0130435Y0129953D01*
X0129300Y0129953D01*
X0128733Y0129386D01*
X0127319Y0129386D02*
X0127319Y0127117D01*
X0126751Y0126550D01*
X0125617Y0126550D01*
X0125050Y0127117D01*
X0125050Y0129386D01*
X0125617Y0129953D01*
X0126751Y0129953D01*
X0127319Y0129386D01*
X0126184Y0127684D02*
X0127319Y0126550D01*
X0121185Y0129617D02*
X0121185Y0130751D01*
X0120618Y0131319D01*
X0120051Y0131319D01*
X0118916Y0130751D01*
X0118916Y0132453D01*
X0121185Y0132453D01*
X0116367Y0132453D02*
X0116367Y0129050D01*
X0115233Y0129050D02*
X0117502Y0129050D01*
X0118916Y0129617D02*
X0119483Y0129050D01*
X0120618Y0129050D01*
X0121185Y0129617D01*
X0116367Y0132453D02*
X0115233Y0131319D01*
X0113819Y0131886D02*
X0113819Y0130751D01*
X0113251Y0130184D01*
X0111550Y0130184D01*
X0111550Y0129050D02*
X0111550Y0132453D01*
X0113251Y0132453D01*
X0113819Y0131886D01*
X0112684Y0130184D02*
X0113819Y0129050D01*
X0136050Y0138250D02*
X0136050Y0141653D01*
X0137751Y0141653D01*
X0138319Y0141086D01*
X0138319Y0139951D01*
X0137751Y0139384D01*
X0136050Y0139384D01*
X0137184Y0139384D02*
X0138319Y0138250D01*
X0139733Y0139951D02*
X0142002Y0139951D01*
X0141435Y0138250D02*
X0141435Y0141653D01*
X0139733Y0139951D01*
X0159347Y0140417D02*
X0159914Y0139850D01*
X0162183Y0139850D01*
X0162750Y0140417D01*
X0162750Y0141551D01*
X0162183Y0142119D01*
X0162183Y0143533D02*
X0162750Y0144100D01*
X0162750Y0145235D01*
X0162183Y0145802D01*
X0161049Y0145802D01*
X0160481Y0145235D01*
X0160481Y0144667D01*
X0161049Y0143533D01*
X0159347Y0143533D01*
X0159347Y0145802D01*
X0159914Y0142119D02*
X0159347Y0141551D01*
X0159347Y0140417D01*
X0178449Y0117102D02*
X0178449Y0114833D01*
X0176747Y0116535D01*
X0180150Y0116535D01*
X0179583Y0113419D02*
X0180150Y0112851D01*
X0180150Y0111717D01*
X0179583Y0111150D01*
X0177314Y0111150D01*
X0176747Y0111717D01*
X0176747Y0112851D01*
X0177314Y0113419D01*
X0189147Y0105735D02*
X0189714Y0106302D01*
X0190281Y0106302D01*
X0190849Y0105735D01*
X0191416Y0106302D01*
X0191983Y0106302D01*
X0192550Y0105735D01*
X0192550Y0104600D01*
X0191983Y0104033D01*
X0191983Y0102619D02*
X0192550Y0102051D01*
X0192550Y0100917D01*
X0191983Y0100350D01*
X0189714Y0100350D01*
X0189147Y0100917D01*
X0189147Y0102051D01*
X0189714Y0102619D01*
X0189714Y0104033D02*
X0189147Y0104600D01*
X0189147Y0105735D01*
X0190849Y0105735D02*
X0190849Y0105167D01*
X0221584Y0104953D02*
X0221584Y0101550D01*
X0221584Y0102684D02*
X0223285Y0102684D01*
X0223852Y0103251D01*
X0223852Y0104386D01*
X0223285Y0104953D01*
X0221584Y0104953D01*
X0222718Y0102684D02*
X0223852Y0101550D01*
X0225267Y0101550D02*
X0227535Y0104953D01*
X0225267Y0104953D02*
X0227535Y0101550D01*
X0231250Y0101250D02*
X0231250Y0106250D01*
X0233750Y0108750D01*
X0231250Y0111250D01*
X0231250Y0116250D01*
X0233750Y0118750D01*
X0238750Y0118750D01*
X0241250Y0116250D01*
X0241250Y0111250D01*
X0238750Y0108750D01*
X0241250Y0106250D01*
X0241250Y0101250D01*
X0238750Y0098750D01*
X0241250Y0096250D01*
X0241250Y0091250D01*
X0238750Y0088750D01*
X0241250Y0086250D01*
X0241250Y0081250D01*
X0238750Y0078750D01*
X0233750Y0078750D01*
X0231250Y0081250D01*
X0231250Y0086250D01*
X0233750Y0088750D01*
X0231250Y0091250D01*
X0231250Y0096250D01*
X0233750Y0098750D01*
X0231250Y0101250D01*
X0227535Y0095453D02*
X0225267Y0092050D01*
X0227535Y0092050D02*
X0225267Y0095453D01*
X0223852Y0095453D02*
X0221584Y0095453D01*
X0222718Y0095453D02*
X0222718Y0092050D01*
X0222102Y0085453D02*
X0220968Y0085453D01*
X0220401Y0084886D01*
X0220401Y0082617D01*
X0220968Y0082050D01*
X0222102Y0082050D01*
X0222669Y0082617D01*
X0222669Y0083751D01*
X0221535Y0083751D01*
X0222669Y0084886D02*
X0222102Y0085453D01*
X0224084Y0085453D02*
X0226352Y0082050D01*
X0226352Y0085453D01*
X0227767Y0085453D02*
X0229468Y0085453D01*
X0230035Y0084886D01*
X0230035Y0082617D01*
X0229468Y0082050D01*
X0227767Y0082050D01*
X0227767Y0085453D01*
X0224084Y0085453D02*
X0224084Y0082050D01*
X0210750Y0080250D02*
X0210750Y0037250D01*
X0210748Y0037190D01*
X0210743Y0037129D01*
X0210734Y0037070D01*
X0210721Y0037011D01*
X0210705Y0036952D01*
X0210685Y0036895D01*
X0210662Y0036840D01*
X0210635Y0036785D01*
X0210606Y0036733D01*
X0210573Y0036682D01*
X0210537Y0036633D01*
X0210499Y0036587D01*
X0210457Y0036543D01*
X0210413Y0036501D01*
X0210367Y0036463D01*
X0210318Y0036427D01*
X0210267Y0036394D01*
X0210215Y0036365D01*
X0210160Y0036338D01*
X0210105Y0036315D01*
X0210048Y0036295D01*
X0209989Y0036279D01*
X0209930Y0036266D01*
X0209871Y0036257D01*
X0209810Y0036252D01*
X0209750Y0036250D01*
X0205750Y0036250D01*
X0196750Y0036250D02*
X0192750Y0036250D01*
X0192690Y0036252D01*
X0192629Y0036257D01*
X0192570Y0036266D01*
X0192511Y0036279D01*
X0192452Y0036295D01*
X0192395Y0036315D01*
X0192340Y0036338D01*
X0192285Y0036365D01*
X0192233Y0036394D01*
X0192182Y0036427D01*
X0192133Y0036463D01*
X0192087Y0036501D01*
X0192043Y0036543D01*
X0192001Y0036587D01*
X0191963Y0036633D01*
X0191927Y0036682D01*
X0191894Y0036733D01*
X0191865Y0036785D01*
X0191838Y0036840D01*
X0191815Y0036895D01*
X0191795Y0036952D01*
X0191779Y0037011D01*
X0191766Y0037070D01*
X0191757Y0037129D01*
X0191752Y0037190D01*
X0191750Y0037250D01*
X0191750Y0080250D01*
X0191752Y0080310D01*
X0191757Y0080371D01*
X0191766Y0080430D01*
X0191779Y0080489D01*
X0191795Y0080548D01*
X0191815Y0080605D01*
X0191838Y0080660D01*
X0191865Y0080715D01*
X0191894Y0080767D01*
X0191927Y0080818D01*
X0191963Y0080867D01*
X0192001Y0080913D01*
X0192043Y0080957D01*
X0192087Y0080999D01*
X0192133Y0081037D01*
X0192182Y0081073D01*
X0192233Y0081106D01*
X0192285Y0081135D01*
X0192340Y0081162D01*
X0192395Y0081185D01*
X0192452Y0081205D01*
X0192511Y0081221D01*
X0192570Y0081234D01*
X0192629Y0081243D01*
X0192690Y0081248D01*
X0192750Y0081250D01*
X0196750Y0081250D01*
X0205750Y0081250D02*
X0209750Y0081250D01*
X0209810Y0081248D01*
X0209871Y0081243D01*
X0209930Y0081234D01*
X0209989Y0081221D01*
X0210048Y0081205D01*
X0210105Y0081185D01*
X0210160Y0081162D01*
X0210215Y0081135D01*
X0210267Y0081106D01*
X0210318Y0081073D01*
X0210367Y0081037D01*
X0210413Y0080999D01*
X0210457Y0080957D01*
X0210499Y0080913D01*
X0210537Y0080867D01*
X0210573Y0080818D01*
X0210606Y0080767D01*
X0210635Y0080715D01*
X0210662Y0080660D01*
X0210685Y0080605D01*
X0210705Y0080548D01*
X0210721Y0080489D01*
X0210734Y0080430D01*
X0210743Y0080371D01*
X0210748Y0080310D01*
X0210750Y0080250D01*
X0224047Y0068568D02*
X0224047Y0067434D01*
X0224614Y0066867D01*
X0224614Y0065452D02*
X0224047Y0064885D01*
X0224047Y0063751D01*
X0224614Y0063184D01*
X0226883Y0063184D01*
X0227450Y0063751D01*
X0227450Y0064885D01*
X0226883Y0065452D01*
X0227450Y0066867D02*
X0225181Y0069135D01*
X0224614Y0069135D01*
X0224047Y0068568D01*
X0227450Y0069135D02*
X0227450Y0066867D01*
X0227450Y0054135D02*
X0227450Y0051867D01*
X0227450Y0053001D02*
X0224047Y0053001D01*
X0225181Y0051867D01*
X0224614Y0050452D02*
X0224047Y0049885D01*
X0224047Y0048751D01*
X0224614Y0048184D01*
X0226883Y0048184D01*
X0227450Y0048751D01*
X0227450Y0049885D01*
X0226883Y0050452D01*
X0203750Y0056250D02*
X0201250Y0056250D01*
X0198750Y0056250D01*
X0198750Y0057750D02*
X0198750Y0059750D01*
X0203750Y0059750D01*
X0203750Y0057750D01*
X0198750Y0057750D01*
X0198750Y0061250D02*
X0201250Y0061250D01*
X0203750Y0061250D01*
X0188450Y0058302D02*
X0188450Y0056033D01*
X0188450Y0057167D02*
X0185047Y0057167D01*
X0186181Y0056033D01*
X0185047Y0054619D02*
X0188450Y0052350D01*
X0188450Y0054619D02*
X0185047Y0052350D01*
X0177057Y0054950D02*
X0174789Y0054950D01*
X0175923Y0054950D02*
X0175923Y0058353D01*
X0174789Y0057219D01*
X0173374Y0057786D02*
X0172807Y0058353D01*
X0171673Y0058353D01*
X0171105Y0057786D01*
X0171105Y0055517D01*
X0171673Y0054950D01*
X0172807Y0054950D01*
X0173374Y0055517D01*
X0169784Y0054950D02*
X0168650Y0054950D01*
X0169217Y0054950D02*
X0169217Y0058353D01*
X0168650Y0058353D02*
X0169784Y0058353D01*
X0163402Y0054986D02*
X0163402Y0054419D01*
X0162835Y0053851D01*
X0161700Y0053851D01*
X0161133Y0054419D01*
X0161133Y0054986D01*
X0161700Y0055553D01*
X0162835Y0055553D01*
X0163402Y0054986D01*
X0162835Y0053851D02*
X0163402Y0053284D01*
X0163402Y0052717D01*
X0162835Y0052150D01*
X0161700Y0052150D01*
X0161133Y0052717D01*
X0161133Y0053284D01*
X0161700Y0053851D01*
X0159719Y0052717D02*
X0159151Y0052150D01*
X0158017Y0052150D01*
X0157450Y0052717D01*
X0157450Y0054986D01*
X0158017Y0055553D01*
X0159151Y0055553D01*
X0159719Y0054986D01*
X0155950Y0042002D02*
X0155950Y0039733D01*
X0153681Y0042002D01*
X0153114Y0042002D01*
X0152547Y0041435D01*
X0152547Y0040300D01*
X0153114Y0039733D01*
X0153114Y0038319D02*
X0152547Y0037751D01*
X0152547Y0036050D01*
X0155950Y0036050D01*
X0155950Y0037751D01*
X0155383Y0038319D01*
X0153114Y0038319D01*
X0140950Y0037751D02*
X0140950Y0036050D01*
X0137547Y0036050D01*
X0137547Y0037751D01*
X0138114Y0038319D01*
X0140383Y0038319D01*
X0140950Y0037751D01*
X0140950Y0039733D02*
X0140950Y0042002D01*
X0140950Y0040867D02*
X0137547Y0040867D01*
X0138681Y0039733D01*
X0120335Y0035286D02*
X0119768Y0035853D01*
X0118634Y0035853D01*
X0118067Y0035286D01*
X0116652Y0035286D02*
X0116085Y0035853D01*
X0114951Y0035853D01*
X0114384Y0035286D01*
X0114384Y0033017D01*
X0114951Y0032450D01*
X0116085Y0032450D01*
X0116652Y0033017D01*
X0118067Y0032450D02*
X0120335Y0034719D01*
X0120335Y0035286D01*
X0120335Y0032450D02*
X0118067Y0032450D01*
X0113063Y0032450D02*
X0111928Y0032450D01*
X0112495Y0032450D02*
X0112495Y0035853D01*
X0111928Y0035853D02*
X0113063Y0035853D01*
X0114050Y0020953D02*
X0115184Y0020953D01*
X0114617Y0020953D02*
X0114617Y0017550D01*
X0114050Y0017550D02*
X0115184Y0017550D01*
X0116505Y0018117D02*
X0117073Y0017550D01*
X0118207Y0017550D01*
X0118774Y0018117D01*
X0120189Y0018117D02*
X0120756Y0017550D01*
X0121890Y0017550D01*
X0122457Y0018117D01*
X0122457Y0019251D01*
X0121890Y0019819D01*
X0121323Y0019819D01*
X0120189Y0019251D01*
X0120189Y0020953D01*
X0122457Y0020953D01*
X0118774Y0020386D02*
X0118207Y0020953D01*
X0117073Y0020953D01*
X0116505Y0020386D01*
X0116505Y0018117D01*
X0137547Y0021550D02*
X0137547Y0023251D01*
X0138114Y0023819D01*
X0139249Y0023819D01*
X0139816Y0023251D01*
X0139816Y0021550D01*
X0140950Y0021550D02*
X0137547Y0021550D01*
X0139816Y0022684D02*
X0140950Y0023819D01*
X0140950Y0025233D02*
X0140950Y0027502D01*
X0140950Y0026367D02*
X0137547Y0026367D01*
X0138681Y0025233D01*
X0152547Y0025800D02*
X0153114Y0025233D01*
X0152547Y0025800D02*
X0152547Y0026935D01*
X0153114Y0027502D01*
X0153681Y0027502D01*
X0155950Y0025233D01*
X0155950Y0027502D01*
X0155950Y0023819D02*
X0154816Y0022684D01*
X0154816Y0023251D02*
X0154816Y0021550D01*
X0155950Y0021550D02*
X0152547Y0021550D01*
X0152547Y0023251D01*
X0153114Y0023819D01*
X0154249Y0023819D01*
X0154816Y0023251D01*
X0167547Y0023251D02*
X0167547Y0021550D01*
X0170950Y0021550D01*
X0169816Y0021550D02*
X0169816Y0023251D01*
X0169249Y0023819D01*
X0168114Y0023819D01*
X0167547Y0023251D01*
X0168114Y0025233D02*
X0167547Y0025800D01*
X0167547Y0026935D01*
X0168114Y0027502D01*
X0168681Y0027502D01*
X0169249Y0026935D01*
X0169816Y0027502D01*
X0170383Y0027502D01*
X0170950Y0026935D01*
X0170950Y0025800D01*
X0170383Y0025233D01*
X0170950Y0023819D02*
X0169816Y0022684D01*
X0169249Y0026367D02*
X0169249Y0026935D01*
X0167547Y0036050D02*
X0170950Y0036050D01*
X0170950Y0037751D01*
X0170383Y0038319D01*
X0168114Y0038319D01*
X0167547Y0037751D01*
X0167547Y0036050D01*
X0168114Y0039733D02*
X0167547Y0040300D01*
X0167547Y0041435D01*
X0168114Y0042002D01*
X0168681Y0042002D01*
X0169249Y0041435D01*
X0169816Y0042002D01*
X0170383Y0042002D01*
X0170950Y0041435D01*
X0170950Y0040300D01*
X0170383Y0039733D01*
X0169249Y0040867D02*
X0169249Y0041435D01*
X0206250Y0021250D02*
X0226250Y0021250D01*
X0226250Y0011250D01*
X0206250Y0011250D01*
X0206250Y0021250D01*
X0129535Y0062786D02*
X0127267Y0060517D01*
X0127267Y0059950D01*
X0125852Y0060517D02*
X0125285Y0059950D01*
X0124151Y0059950D01*
X0123584Y0060517D01*
X0123584Y0062786D01*
X0124151Y0063353D01*
X0125285Y0063353D01*
X0125852Y0062786D01*
X0127267Y0063353D02*
X0129535Y0063353D01*
X0129535Y0062786D01*
X0209867Y0131613D02*
X0212135Y0133881D01*
X0212135Y0134448D01*
X0211568Y0135016D01*
X0210434Y0135016D01*
X0209867Y0134448D01*
X0209867Y0131613D02*
X0212135Y0131613D01*
X0212135Y0137450D02*
X0209867Y0137450D01*
X0211001Y0137450D02*
X0211001Y0140853D01*
X0209867Y0139719D01*
D12*
X0209596Y0143140D02*
X0218100Y0143140D01*
X0218100Y0129360D01*
X0209675Y0129360D01*
X0209577Y0125915D02*
X0222136Y0125915D01*
X0222136Y0146585D01*
X0209675Y0146585D01*
X0182904Y0146585D02*
X0170364Y0146585D01*
X0170364Y0125915D01*
X0182923Y0125915D01*
X0182904Y0129360D02*
X0174400Y0129360D01*
X0174400Y0143140D01*
X0182904Y0143140D01*
X0221150Y0098750D02*
X0231150Y0098750D01*
X0231150Y0088750D02*
X0221150Y0088750D01*
X0150424Y0090108D02*
X0150426Y0090196D01*
X0150432Y0090284D01*
X0150442Y0090372D01*
X0150456Y0090459D01*
X0150473Y0090546D01*
X0150495Y0090632D01*
X0150520Y0090716D01*
X0150549Y0090800D01*
X0150582Y0090881D01*
X0150619Y0090962D01*
X0150659Y0091041D01*
X0150703Y0091117D01*
X0150750Y0091192D01*
X0150800Y0091265D01*
X0150853Y0091335D01*
X0150910Y0091403D01*
X0150970Y0091468D01*
X0151032Y0091530D01*
X0151097Y0091590D01*
X0151165Y0091647D01*
X0151235Y0091700D01*
X0151308Y0091750D01*
X0151383Y0091797D01*
X0151459Y0091841D01*
X0151538Y0091881D01*
X0151619Y0091918D01*
X0151700Y0091951D01*
X0151784Y0091980D01*
X0151868Y0092005D01*
X0151954Y0092027D01*
X0152041Y0092044D01*
X0152128Y0092058D01*
X0152216Y0092068D01*
X0152304Y0092074D01*
X0152392Y0092076D01*
X0152480Y0092074D01*
X0152568Y0092068D01*
X0152656Y0092058D01*
X0152743Y0092044D01*
X0152830Y0092027D01*
X0152916Y0092005D01*
X0153000Y0091980D01*
X0153084Y0091951D01*
X0153165Y0091918D01*
X0153246Y0091881D01*
X0153325Y0091841D01*
X0153401Y0091797D01*
X0153476Y0091750D01*
X0153549Y0091700D01*
X0153619Y0091647D01*
X0153687Y0091590D01*
X0153752Y0091530D01*
X0153814Y0091468D01*
X0153874Y0091403D01*
X0153931Y0091335D01*
X0153984Y0091265D01*
X0154034Y0091192D01*
X0154081Y0091117D01*
X0154125Y0091041D01*
X0154165Y0090962D01*
X0154202Y0090881D01*
X0154235Y0090800D01*
X0154264Y0090716D01*
X0154289Y0090632D01*
X0154311Y0090546D01*
X0154328Y0090459D01*
X0154342Y0090372D01*
X0154352Y0090284D01*
X0154358Y0090196D01*
X0154360Y0090108D01*
X0154358Y0090020D01*
X0154352Y0089932D01*
X0154342Y0089844D01*
X0154328Y0089757D01*
X0154311Y0089670D01*
X0154289Y0089584D01*
X0154264Y0089500D01*
X0154235Y0089416D01*
X0154202Y0089335D01*
X0154165Y0089254D01*
X0154125Y0089175D01*
X0154081Y0089099D01*
X0154034Y0089024D01*
X0153984Y0088951D01*
X0153931Y0088881D01*
X0153874Y0088813D01*
X0153814Y0088748D01*
X0153752Y0088686D01*
X0153687Y0088626D01*
X0153619Y0088569D01*
X0153549Y0088516D01*
X0153476Y0088466D01*
X0153401Y0088419D01*
X0153325Y0088375D01*
X0153246Y0088335D01*
X0153165Y0088298D01*
X0153084Y0088265D01*
X0153000Y0088236D01*
X0152916Y0088211D01*
X0152830Y0088189D01*
X0152743Y0088172D01*
X0152656Y0088158D01*
X0152568Y0088148D01*
X0152480Y0088142D01*
X0152392Y0088140D01*
X0152304Y0088142D01*
X0152216Y0088148D01*
X0152128Y0088158D01*
X0152041Y0088172D01*
X0151954Y0088189D01*
X0151868Y0088211D01*
X0151784Y0088236D01*
X0151700Y0088265D01*
X0151619Y0088298D01*
X0151538Y0088335D01*
X0151459Y0088375D01*
X0151383Y0088419D01*
X0151308Y0088466D01*
X0151235Y0088516D01*
X0151165Y0088569D01*
X0151097Y0088626D01*
X0151032Y0088686D01*
X0150970Y0088748D01*
X0150910Y0088813D01*
X0150853Y0088881D01*
X0150800Y0088951D01*
X0150750Y0089024D01*
X0150703Y0089099D01*
X0150659Y0089175D01*
X0150619Y0089254D01*
X0150582Y0089335D01*
X0150549Y0089416D01*
X0150520Y0089500D01*
X0150495Y0089584D01*
X0150473Y0089670D01*
X0150456Y0089757D01*
X0150442Y0089844D01*
X0150432Y0089932D01*
X0150426Y0090020D01*
X0150424Y0090108D01*
X0143650Y0095750D02*
X0143652Y0095794D01*
X0143658Y0095838D01*
X0143668Y0095881D01*
X0143681Y0095923D01*
X0143698Y0095964D01*
X0143719Y0096003D01*
X0143743Y0096040D01*
X0143770Y0096075D01*
X0143800Y0096107D01*
X0143833Y0096137D01*
X0143869Y0096163D01*
X0143906Y0096187D01*
X0143946Y0096206D01*
X0143987Y0096223D01*
X0144030Y0096235D01*
X0144073Y0096244D01*
X0144117Y0096249D01*
X0144161Y0096250D01*
X0144205Y0096247D01*
X0144249Y0096240D01*
X0144292Y0096229D01*
X0144334Y0096215D01*
X0144374Y0096197D01*
X0144413Y0096175D01*
X0144449Y0096151D01*
X0144483Y0096123D01*
X0144515Y0096092D01*
X0144544Y0096058D01*
X0144570Y0096022D01*
X0144592Y0095984D01*
X0144611Y0095944D01*
X0144626Y0095902D01*
X0144638Y0095860D01*
X0144646Y0095816D01*
X0144650Y0095772D01*
X0144650Y0095728D01*
X0144646Y0095684D01*
X0144638Y0095640D01*
X0144626Y0095598D01*
X0144611Y0095556D01*
X0144592Y0095516D01*
X0144570Y0095478D01*
X0144544Y0095442D01*
X0144515Y0095408D01*
X0144483Y0095377D01*
X0144449Y0095349D01*
X0144413Y0095325D01*
X0144374Y0095303D01*
X0144334Y0095285D01*
X0144292Y0095271D01*
X0144249Y0095260D01*
X0144205Y0095253D01*
X0144161Y0095250D01*
X0144117Y0095251D01*
X0144073Y0095256D01*
X0144030Y0095265D01*
X0143987Y0095277D01*
X0143946Y0095294D01*
X0143906Y0095313D01*
X0143869Y0095337D01*
X0143833Y0095363D01*
X0143800Y0095393D01*
X0143770Y0095425D01*
X0143743Y0095460D01*
X0143719Y0095497D01*
X0143698Y0095536D01*
X0143681Y0095577D01*
X0143668Y0095619D01*
X0143658Y0095662D01*
X0143652Y0095706D01*
X0143650Y0095750D01*
X0125650Y0078250D02*
X0125652Y0078294D01*
X0125658Y0078338D01*
X0125668Y0078381D01*
X0125681Y0078423D01*
X0125698Y0078464D01*
X0125719Y0078503D01*
X0125743Y0078540D01*
X0125770Y0078575D01*
X0125800Y0078607D01*
X0125833Y0078637D01*
X0125869Y0078663D01*
X0125906Y0078687D01*
X0125946Y0078706D01*
X0125987Y0078723D01*
X0126030Y0078735D01*
X0126073Y0078744D01*
X0126117Y0078749D01*
X0126161Y0078750D01*
X0126205Y0078747D01*
X0126249Y0078740D01*
X0126292Y0078729D01*
X0126334Y0078715D01*
X0126374Y0078697D01*
X0126413Y0078675D01*
X0126449Y0078651D01*
X0126483Y0078623D01*
X0126515Y0078592D01*
X0126544Y0078558D01*
X0126570Y0078522D01*
X0126592Y0078484D01*
X0126611Y0078444D01*
X0126626Y0078402D01*
X0126638Y0078360D01*
X0126646Y0078316D01*
X0126650Y0078272D01*
X0126650Y0078228D01*
X0126646Y0078184D01*
X0126638Y0078140D01*
X0126626Y0078098D01*
X0126611Y0078056D01*
X0126592Y0078016D01*
X0126570Y0077978D01*
X0126544Y0077942D01*
X0126515Y0077908D01*
X0126483Y0077877D01*
X0126449Y0077849D01*
X0126413Y0077825D01*
X0126374Y0077803D01*
X0126334Y0077785D01*
X0126292Y0077771D01*
X0126249Y0077760D01*
X0126205Y0077753D01*
X0126161Y0077750D01*
X0126117Y0077751D01*
X0126073Y0077756D01*
X0126030Y0077765D01*
X0125987Y0077777D01*
X0125946Y0077794D01*
X0125906Y0077813D01*
X0125869Y0077837D01*
X0125833Y0077863D01*
X0125800Y0077893D01*
X0125770Y0077925D01*
X0125743Y0077960D01*
X0125719Y0077997D01*
X0125698Y0078036D01*
X0125681Y0078077D01*
X0125668Y0078119D01*
X0125658Y0078162D01*
X0125652Y0078206D01*
X0125650Y0078250D01*
X0125650Y0037450D02*
X0125652Y0037494D01*
X0125658Y0037538D01*
X0125668Y0037581D01*
X0125681Y0037623D01*
X0125698Y0037664D01*
X0125719Y0037703D01*
X0125743Y0037740D01*
X0125770Y0037775D01*
X0125800Y0037807D01*
X0125833Y0037837D01*
X0125869Y0037863D01*
X0125906Y0037887D01*
X0125946Y0037906D01*
X0125987Y0037923D01*
X0126030Y0037935D01*
X0126073Y0037944D01*
X0126117Y0037949D01*
X0126161Y0037950D01*
X0126205Y0037947D01*
X0126249Y0037940D01*
X0126292Y0037929D01*
X0126334Y0037915D01*
X0126374Y0037897D01*
X0126413Y0037875D01*
X0126449Y0037851D01*
X0126483Y0037823D01*
X0126515Y0037792D01*
X0126544Y0037758D01*
X0126570Y0037722D01*
X0126592Y0037684D01*
X0126611Y0037644D01*
X0126626Y0037602D01*
X0126638Y0037560D01*
X0126646Y0037516D01*
X0126650Y0037472D01*
X0126650Y0037428D01*
X0126646Y0037384D01*
X0126638Y0037340D01*
X0126626Y0037298D01*
X0126611Y0037256D01*
X0126592Y0037216D01*
X0126570Y0037178D01*
X0126544Y0037142D01*
X0126515Y0037108D01*
X0126483Y0037077D01*
X0126449Y0037049D01*
X0126413Y0037025D01*
X0126374Y0037003D01*
X0126334Y0036985D01*
X0126292Y0036971D01*
X0126249Y0036960D01*
X0126205Y0036953D01*
X0126161Y0036950D01*
X0126117Y0036951D01*
X0126073Y0036956D01*
X0126030Y0036965D01*
X0125987Y0036977D01*
X0125946Y0036994D01*
X0125906Y0037013D01*
X0125869Y0037037D01*
X0125833Y0037063D01*
X0125800Y0037093D01*
X0125770Y0037125D01*
X0125743Y0037160D01*
X0125719Y0037197D01*
X0125698Y0037236D01*
X0125681Y0037277D01*
X0125668Y0037319D01*
X0125658Y0037362D01*
X0125652Y0037406D01*
X0125650Y0037450D01*
X0049150Y0114250D02*
X0049152Y0114294D01*
X0049158Y0114338D01*
X0049168Y0114381D01*
X0049181Y0114423D01*
X0049198Y0114464D01*
X0049219Y0114503D01*
X0049243Y0114540D01*
X0049270Y0114575D01*
X0049300Y0114607D01*
X0049333Y0114637D01*
X0049369Y0114663D01*
X0049406Y0114687D01*
X0049446Y0114706D01*
X0049487Y0114723D01*
X0049530Y0114735D01*
X0049573Y0114744D01*
X0049617Y0114749D01*
X0049661Y0114750D01*
X0049705Y0114747D01*
X0049749Y0114740D01*
X0049792Y0114729D01*
X0049834Y0114715D01*
X0049874Y0114697D01*
X0049913Y0114675D01*
X0049949Y0114651D01*
X0049983Y0114623D01*
X0050015Y0114592D01*
X0050044Y0114558D01*
X0050070Y0114522D01*
X0050092Y0114484D01*
X0050111Y0114444D01*
X0050126Y0114402D01*
X0050138Y0114360D01*
X0050146Y0114316D01*
X0050150Y0114272D01*
X0050150Y0114228D01*
X0050146Y0114184D01*
X0050138Y0114140D01*
X0050126Y0114098D01*
X0050111Y0114056D01*
X0050092Y0114016D01*
X0050070Y0113978D01*
X0050044Y0113942D01*
X0050015Y0113908D01*
X0049983Y0113877D01*
X0049949Y0113849D01*
X0049913Y0113825D01*
X0049874Y0113803D01*
X0049834Y0113785D01*
X0049792Y0113771D01*
X0049749Y0113760D01*
X0049705Y0113753D01*
X0049661Y0113750D01*
X0049617Y0113751D01*
X0049573Y0113756D01*
X0049530Y0113765D01*
X0049487Y0113777D01*
X0049446Y0113794D01*
X0049406Y0113813D01*
X0049369Y0113837D01*
X0049333Y0113863D01*
X0049300Y0113893D01*
X0049270Y0113925D01*
X0049243Y0113960D01*
X0049219Y0113997D01*
X0049198Y0114036D01*
X0049181Y0114077D01*
X0049168Y0114119D01*
X0049158Y0114162D01*
X0049152Y0114206D01*
X0049150Y0114250D01*
D13*
X0007750Y0103750D02*
X0007750Y0098750D01*
X0020248Y0051056D02*
X0020248Y0048254D01*
X0018146Y0050356D01*
X0022350Y0050356D01*
X0021649Y0045752D02*
X0018146Y0045752D01*
X0018146Y0046452D02*
X0018146Y0045051D01*
X0021649Y0045752D02*
X0022350Y0045051D01*
X0022350Y0044351D01*
X0021649Y0043650D01*
X0148652Y0068652D02*
X0148652Y0093848D01*
X0173848Y0093848D01*
X0173848Y0068652D01*
X0148652Y0068652D01*
X0195250Y0027654D02*
X0197352Y0027654D01*
X0198052Y0026953D01*
X0198052Y0026252D01*
X0197352Y0025552D01*
X0195250Y0025552D01*
X0195250Y0023450D02*
X0195250Y0027654D01*
X0197352Y0025552D02*
X0198052Y0024851D01*
X0198052Y0024151D01*
X0197352Y0023450D01*
X0195250Y0023450D01*
X0199854Y0024151D02*
X0200555Y0023450D01*
X0201956Y0023450D01*
X0202656Y0024151D01*
X0202656Y0025552D01*
X0201956Y0026252D01*
X0200555Y0026252D01*
X0199854Y0025552D01*
X0199854Y0024151D01*
X0204458Y0024151D02*
X0204458Y0025552D01*
X0205158Y0026252D01*
X0206560Y0026252D01*
X0207260Y0025552D01*
X0207260Y0024151D01*
X0206560Y0023450D01*
X0205158Y0023450D01*
X0204458Y0024151D01*
X0209062Y0026252D02*
X0210463Y0026252D01*
X0209762Y0026953D02*
X0209762Y0024151D01*
X0210463Y0023450D01*
X0212131Y0023450D02*
X0213532Y0023450D01*
X0212832Y0023450D02*
X0212832Y0027654D01*
X0212131Y0027654D01*
X0215200Y0025552D02*
X0215901Y0026252D01*
X0217302Y0026252D01*
X0218003Y0025552D01*
X0218003Y0024151D01*
X0217302Y0023450D01*
X0215901Y0023450D01*
X0215200Y0024151D01*
X0215200Y0025552D01*
X0219804Y0024151D02*
X0220505Y0024851D01*
X0222607Y0024851D01*
X0222607Y0025552D02*
X0222607Y0023450D01*
X0220505Y0023450D01*
X0219804Y0024151D01*
X0221906Y0026252D02*
X0222607Y0025552D01*
X0221906Y0026252D02*
X0220505Y0026252D01*
X0224408Y0025552D02*
X0225109Y0026252D01*
X0227211Y0026252D01*
X0227211Y0027654D02*
X0227211Y0023450D01*
X0225109Y0023450D01*
X0224408Y0024151D01*
X0224408Y0025552D01*
X0229012Y0025552D02*
X0229012Y0024151D01*
X0229713Y0023450D01*
X0231114Y0023450D01*
X0231814Y0024851D02*
X0229012Y0024851D01*
X0229012Y0025552D02*
X0229713Y0026252D01*
X0231114Y0026252D01*
X0231814Y0025552D01*
X0231814Y0024851D01*
X0233616Y0024851D02*
X0235017Y0026252D01*
X0235718Y0026252D01*
X0233616Y0026252D02*
X0233616Y0023450D01*
X0233752Y0018354D02*
X0233752Y0014851D01*
X0233051Y0014150D01*
X0232351Y0014150D01*
X0231650Y0014851D01*
X0233051Y0018354D02*
X0234452Y0018354D01*
X0236254Y0017653D02*
X0236955Y0018354D01*
X0238356Y0018354D01*
X0239056Y0017653D01*
X0239056Y0016952D01*
X0236254Y0014150D01*
X0239056Y0014150D01*
X0220085Y0117891D02*
X0218684Y0117891D01*
X0217983Y0118591D01*
X0219385Y0119992D02*
X0220085Y0119992D01*
X0220786Y0119292D01*
X0220786Y0118591D01*
X0220085Y0117891D01*
X0220085Y0119992D02*
X0220786Y0120693D01*
X0220786Y0121394D01*
X0220085Y0122094D01*
X0218684Y0122094D01*
X0217983Y0121394D01*
X0216182Y0122094D02*
X0214781Y0122094D01*
X0215481Y0122094D02*
X0215481Y0118591D01*
X0214781Y0117891D01*
X0214080Y0117891D01*
X0213380Y0118591D01*
X0234146Y0125551D02*
X0234146Y0126952D01*
X0234146Y0126252D02*
X0237649Y0126252D01*
X0238350Y0125551D01*
X0238350Y0124851D01*
X0237649Y0124150D01*
X0238350Y0128754D02*
X0238350Y0131556D01*
X0238350Y0130155D02*
X0234146Y0130155D01*
X0235548Y0128754D01*
X0215752Y0152449D02*
X0216453Y0153149D01*
X0216453Y0156652D01*
X0214351Y0156652D01*
X0213651Y0155952D01*
X0213651Y0154551D01*
X0214351Y0153850D01*
X0216453Y0153850D01*
X0215752Y0152449D02*
X0215052Y0152449D01*
X0218255Y0153850D02*
X0219656Y0155251D01*
X0219656Y0156652D01*
X0218255Y0158054D01*
X0211849Y0156652D02*
X0211849Y0153850D01*
X0209747Y0153850D01*
X0209047Y0154551D01*
X0209047Y0156652D01*
X0207245Y0155952D02*
X0206545Y0156652D01*
X0204443Y0156652D01*
X0204443Y0158054D02*
X0204443Y0153850D01*
X0206545Y0153850D01*
X0207245Y0154551D01*
X0207245Y0155952D01*
X0202641Y0155952D02*
X0202641Y0155251D01*
X0199839Y0155251D01*
X0199839Y0154551D02*
X0199839Y0155952D01*
X0200539Y0156652D01*
X0201941Y0156652D01*
X0202641Y0155952D01*
X0201941Y0153850D02*
X0200539Y0153850D01*
X0199839Y0154551D01*
X0198037Y0154551D02*
X0197337Y0153850D01*
X0195235Y0153850D01*
X0195235Y0158054D01*
X0197337Y0158054D01*
X0198037Y0157353D01*
X0198037Y0154551D01*
X0193567Y0153850D02*
X0192166Y0155251D01*
X0192166Y0156652D01*
X0193567Y0158054D01*
X0185760Y0157353D02*
X0185760Y0154551D01*
X0185060Y0153850D01*
X0182958Y0153850D01*
X0182958Y0158054D01*
X0185060Y0158054D01*
X0185760Y0157353D01*
X0181156Y0158054D02*
X0181156Y0153850D01*
X0179755Y0155251D01*
X0178354Y0153850D01*
X0178354Y0158054D01*
X0176552Y0157353D02*
X0175852Y0158054D01*
X0174451Y0158054D01*
X0173750Y0157353D01*
X0173750Y0156652D01*
X0174451Y0155952D01*
X0175852Y0155952D01*
X0176552Y0155251D01*
X0176552Y0154551D01*
X0175852Y0153850D01*
X0174451Y0153850D01*
X0173750Y0154551D01*
D14*
X0065650Y0026155D02*
X0065650Y0025304D01*
X0065650Y0023603D02*
X0065650Y0020200D01*
X0066500Y0020200D02*
X0064799Y0020200D01*
X0062677Y0021051D02*
X0062677Y0024454D01*
X0061826Y0025304D01*
X0059274Y0025304D01*
X0059274Y0020200D01*
X0061826Y0020200D01*
X0062677Y0021051D01*
X0064799Y0023603D02*
X0065650Y0023603D01*
X0069333Y0023603D02*
X0071034Y0023603D01*
X0071885Y0022752D01*
X0071885Y0020200D01*
X0069333Y0020200D01*
X0068482Y0021051D01*
X0069333Y0021901D01*
X0071885Y0021901D01*
X0074007Y0021051D02*
X0074857Y0020200D01*
X0077410Y0020200D01*
X0077410Y0019349D02*
X0077410Y0023603D01*
X0074857Y0023603D01*
X0074007Y0022752D01*
X0074007Y0021051D01*
X0075708Y0018499D02*
X0076559Y0018499D01*
X0077410Y0019349D01*
X0079531Y0020200D02*
X0080382Y0020200D01*
X0080382Y0021051D01*
X0079531Y0021051D01*
X0079531Y0020200D01*
X0082294Y0020200D02*
X0082294Y0025304D01*
X0085697Y0020200D01*
X0085697Y0025304D01*
X0087819Y0022752D02*
X0088669Y0023603D01*
X0090371Y0023603D01*
X0091221Y0022752D01*
X0091221Y0021901D01*
X0087819Y0021901D01*
X0087819Y0021051D02*
X0087819Y0022752D01*
X0087819Y0021051D02*
X0088669Y0020200D01*
X0090371Y0020200D01*
X0094194Y0021051D02*
X0095045Y0020200D01*
X0094194Y0021051D02*
X0094194Y0024454D01*
X0093343Y0023603D02*
X0095045Y0023603D01*
X0057152Y0023603D02*
X0054600Y0023603D01*
X0053749Y0022752D01*
X0053749Y0021051D01*
X0054600Y0020200D01*
X0057152Y0020200D01*
X0057152Y0025304D01*
X0051628Y0022752D02*
X0050777Y0023603D01*
X0048225Y0023603D01*
X0048225Y0025304D02*
X0048225Y0020200D01*
X0050777Y0020200D01*
X0051628Y0021051D01*
X0051628Y0022752D01*
X0046103Y0021051D02*
X0046103Y0024454D01*
X0045252Y0025304D01*
X0043551Y0025304D01*
X0042700Y0024454D01*
X0042700Y0021051D01*
X0043551Y0020200D01*
X0045252Y0020200D01*
X0046103Y0021051D01*
D15*
X0146250Y0039144D03*
X0161250Y0039144D03*
X0176250Y0039144D03*
D16*
X0233996Y0075501D02*
X0238500Y0075501D01*
X0238500Y0074000D02*
X0238500Y0077003D01*
X0235497Y0074000D02*
X0233996Y0075501D01*
D17*
X0209250Y0072250D02*
X0209250Y0045250D01*
X0206250Y0045250D02*
X0206250Y0072250D01*
X0206248Y0072383D01*
X0206243Y0072515D01*
X0206234Y0072647D01*
X0206222Y0072780D01*
X0206206Y0072911D01*
X0206187Y0073043D01*
X0206164Y0073173D01*
X0206138Y0073303D01*
X0206108Y0073433D01*
X0206075Y0073561D01*
X0206039Y0073689D01*
X0205999Y0073815D01*
X0205956Y0073941D01*
X0205909Y0074065D01*
X0205859Y0074188D01*
X0205806Y0074309D01*
X0205750Y0074429D01*
X0196750Y0078864D02*
X0196590Y0078753D01*
X0196434Y0078638D01*
X0196280Y0078519D01*
X0196128Y0078396D01*
X0195980Y0078269D01*
X0195836Y0078139D01*
X0195694Y0078006D01*
X0195555Y0077869D01*
X0195420Y0077729D01*
X0195289Y0077585D01*
X0195161Y0077439D01*
X0195036Y0077289D01*
X0194916Y0077136D01*
X0194799Y0076981D01*
X0194685Y0076822D01*
X0194576Y0076661D01*
X0194471Y0076497D01*
X0194369Y0076331D01*
X0194272Y0076163D01*
X0194179Y0075992D01*
X0194090Y0075818D01*
X0194005Y0075643D01*
X0193925Y0075466D01*
X0193849Y0075287D01*
X0193777Y0075106D01*
X0193710Y0074923D01*
X0193647Y0074739D01*
X0193589Y0074553D01*
X0193535Y0074366D01*
X0193486Y0074177D01*
X0193441Y0073988D01*
X0193401Y0073797D01*
X0193366Y0073606D01*
X0193335Y0073414D01*
X0193309Y0073221D01*
X0193288Y0073027D01*
X0193271Y0072833D01*
X0193259Y0072639D01*
X0193252Y0072444D01*
X0193250Y0072250D01*
X0193250Y0045250D01*
X0196250Y0045250D02*
X0196250Y0072250D01*
X0196252Y0072383D01*
X0196257Y0072515D01*
X0196266Y0072647D01*
X0196278Y0072780D01*
X0196294Y0072911D01*
X0196313Y0073043D01*
X0196336Y0073173D01*
X0196362Y0073303D01*
X0196392Y0073433D01*
X0196425Y0073561D01*
X0196461Y0073689D01*
X0196501Y0073815D01*
X0196544Y0073941D01*
X0196591Y0074065D01*
X0196641Y0074188D01*
X0196694Y0074309D01*
X0196750Y0074429D01*
X0205750Y0078865D02*
X0205909Y0078753D01*
X0206066Y0078638D01*
X0206220Y0078519D01*
X0206371Y0078396D01*
X0206519Y0078270D01*
X0206664Y0078140D01*
X0206806Y0078006D01*
X0206944Y0077869D01*
X0207079Y0077729D01*
X0207211Y0077586D01*
X0207339Y0077439D01*
X0207463Y0077289D01*
X0207584Y0077137D01*
X0207701Y0076981D01*
X0207814Y0076823D01*
X0207924Y0076662D01*
X0208029Y0076498D01*
X0208130Y0076332D01*
X0208228Y0076163D01*
X0208321Y0075992D01*
X0208410Y0075819D01*
X0208495Y0075644D01*
X0208575Y0075466D01*
X0208651Y0075287D01*
X0208723Y0075106D01*
X0208790Y0074924D01*
X0208853Y0074739D01*
X0208911Y0074554D01*
X0208965Y0074366D01*
X0209014Y0074178D01*
X0209059Y0073989D01*
X0209099Y0073798D01*
X0209134Y0073607D01*
X0209165Y0073414D01*
X0209191Y0073221D01*
X0209212Y0073028D01*
X0209229Y0072834D01*
X0209241Y0072640D01*
X0209248Y0072445D01*
X0209250Y0072250D01*
X0201250Y0063250D02*
X0201250Y0061250D01*
X0201250Y0056250D02*
X0201250Y0054250D01*
X0193250Y0045250D02*
X0193252Y0045055D01*
X0193259Y0044861D01*
X0193271Y0044666D01*
X0193288Y0044472D01*
X0193309Y0044279D01*
X0193335Y0044086D01*
X0193366Y0043894D01*
X0193401Y0043702D01*
X0193441Y0043512D01*
X0193486Y0043322D01*
X0193535Y0043134D01*
X0193589Y0042947D01*
X0193647Y0042761D01*
X0193710Y0042577D01*
X0193777Y0042394D01*
X0193849Y0042213D01*
X0193925Y0042034D01*
X0194005Y0041857D01*
X0194090Y0041681D01*
X0194179Y0041508D01*
X0194272Y0041337D01*
X0194369Y0041169D01*
X0194471Y0041002D01*
X0194576Y0040839D01*
X0194686Y0040678D01*
X0194799Y0040519D01*
X0194916Y0040364D01*
X0195037Y0040211D01*
X0195161Y0040061D01*
X0195289Y0039915D01*
X0195421Y0039771D01*
X0195556Y0039631D01*
X0195694Y0039494D01*
X0195836Y0039361D01*
X0195981Y0039231D01*
X0196129Y0039104D01*
X0196280Y0038981D01*
X0196434Y0038862D01*
X0196591Y0038747D01*
X0196750Y0038635D01*
X0205750Y0038636D02*
X0205910Y0038747D01*
X0206066Y0038862D01*
X0206220Y0038981D01*
X0206372Y0039104D01*
X0206520Y0039231D01*
X0206664Y0039361D01*
X0206806Y0039494D01*
X0206945Y0039631D01*
X0207080Y0039771D01*
X0207211Y0039915D01*
X0207339Y0040061D01*
X0207464Y0040211D01*
X0207584Y0040364D01*
X0207701Y0040519D01*
X0207815Y0040678D01*
X0207924Y0040839D01*
X0208029Y0041003D01*
X0208131Y0041169D01*
X0208228Y0041337D01*
X0208321Y0041508D01*
X0208410Y0041682D01*
X0208495Y0041857D01*
X0208575Y0042034D01*
X0208651Y0042213D01*
X0208723Y0042394D01*
X0208790Y0042577D01*
X0208853Y0042761D01*
X0208911Y0042947D01*
X0208965Y0043134D01*
X0209014Y0043323D01*
X0209059Y0043512D01*
X0209099Y0043703D01*
X0209134Y0043894D01*
X0209165Y0044086D01*
X0209191Y0044279D01*
X0209212Y0044473D01*
X0209229Y0044667D01*
X0209241Y0044861D01*
X0209248Y0045056D01*
X0209250Y0045250D01*
X0206250Y0045250D02*
X0206248Y0045117D01*
X0206243Y0044985D01*
X0206234Y0044853D01*
X0206222Y0044720D01*
X0206206Y0044589D01*
X0206187Y0044457D01*
X0206164Y0044327D01*
X0206138Y0044197D01*
X0206108Y0044067D01*
X0206075Y0043939D01*
X0206039Y0043811D01*
X0205999Y0043685D01*
X0205956Y0043559D01*
X0205909Y0043435D01*
X0205859Y0043312D01*
X0205806Y0043191D01*
X0205750Y0043071D01*
X0196750Y0043071D02*
X0196694Y0043191D01*
X0196641Y0043312D01*
X0196591Y0043435D01*
X0196544Y0043559D01*
X0196501Y0043685D01*
X0196461Y0043811D01*
X0196425Y0043939D01*
X0196392Y0044067D01*
X0196362Y0044197D01*
X0196336Y0044327D01*
X0196313Y0044457D01*
X0196294Y0044589D01*
X0196278Y0044720D01*
X0196266Y0044853D01*
X0196257Y0044985D01*
X0196252Y0045117D01*
X0196250Y0045250D01*
D18*
X0212263Y0148600D02*
X0212263Y0151100D01*
X0209763Y0149850D01*
X0212263Y0148600D01*
X0212263Y0148699D02*
X0212064Y0148699D01*
X0212263Y0149098D02*
X0211267Y0149098D01*
X0210470Y0149496D02*
X0212263Y0149496D01*
X0212263Y0149895D02*
X0209852Y0149895D01*
X0210649Y0150293D02*
X0212263Y0150293D01*
X0212263Y0150692D02*
X0211446Y0150692D01*
X0212243Y0151090D02*
X0212263Y0151090D01*
D19*
X0015250Y0081250D03*
M02*
